<svg width="101" height="100" viewBox="0 0 101 100" fill="none" xmlns="http://www.w3.org/2000/svg">
<path d="M42.4053 0.693116C43.018 0.645088 43.8375 0.67499 44.6201 1.06909L44.7754 1.15308L44.9414 1.24976C45.7618 1.73904 46.4933 2.34371 47.1152 3.4148C47.7011 4.42403 48.147 5.77975 48.6387 7.64819C49.7636 11.9231 48.8191 14.6124 48.0732 18.155C47.3428 21.6252 47.1337 28.4646 47.3301 36.1248C47.4322 40.11 47.0735 42.4179 46.7021 44.1951C46.3311 45.9707 46.0724 46.7792 46.1523 48.2185C46.2403 49.8007 46.6411 51.6881 47.0684 53.7205C47.4712 55.6367 47.9189 57.7686 47.9189 59.4988C47.9189 61.2843 47.5828 62.9923 47.2725 64.6394C46.9749 66.2188 46.6769 67.8488 46.5654 69.7781L46.5449 70.1677C46.4795 71.6726 46.6437 72.9357 46.873 73.9041C47.0574 74.6822 47.3324 75.4255 47.6543 76.366C47.9582 77.254 48.2915 78.2903 48.4404 79.4119L48.4912 79.8054C48.7346 81.8225 48.8824 84.5519 48.7002 87.8318C48.4654 92.0564 46.8149 95.4054 45.25 97.53C44.3766 98.7156 43.1663 99.2643 42.0674 99.5222C41.1374 99.7404 40.1693 99.7771 39.3711 99.782L39.04 99.783C39.0005 99.7829 38.959 99.7854 38.8047 99.8162C38.6807 99.8409 38.417 99.8999 38.1035 99.9353L37.9668 99.949C34.1873 100.269 31.006 99.0279 28.6465 97.6648C27.4649 96.9822 26.4669 96.2565 25.6885 95.6599C24.9261 95.0756 24.5245 94.7421 24.2529 94.5535L24.1445 94.4812C23.2266 93.9075 18.9181 91.1804 15.3535 88.7117L14.6514 88.2214C12.4516 86.6747 10.9919 84.4685 9.88574 82.4089C8.81075 80.4073 7.44473 78.3771 6.33203 77.3171L6.22461 77.2175C4.51052 75.6593 3.54895 73.3862 3.00293 71.3367C2.44592 69.2458 2.251 67.1188 2.25098 65.575C2.25067 65.5683 2.24914 65.5394 2.24219 65.4841C2.2335 65.4152 2.21839 65.3236 2.19531 65.2068C2.14865 64.9706 2.07745 64.6759 1.98242 64.325C1.79081 63.6173 1.53354 62.787 1.25879 61.8884C0.99056 61.0112 0.707543 60.0742 0.492188 59.2253C0.28848 58.4224 0.0957236 57.5139 0.0957031 56.7546C0.0957445 55.9299 0.264094 54.9476 0.461914 54.0369C0.666589 53.0946 0.933821 52.0908 1.18848 51.1794L1.29883 50.7703C1.83274 48.711 2.10573 46.5043 2.37598 44.2195C2.49033 43.2526 2.61003 42.2643 2.7002 41.4187C2.83635 40.1418 3.02957 38.5975 3.66113 37.1218L3.79492 36.8132C4.1155 36.0851 4.49341 35.2986 4.88086 34.5574L5.09473 34.156C5.6061 33.2247 6.18202 32.322 6.69238 31.5007C7.29607 30.5293 7.82782 29.6425 8.2373 28.7498L8.55469 28.0457C8.86866 27.3337 9.16961 26.6029 9.4248 25.9011L9.47949 25.7585C9.76792 25.0289 10.3004 24.0928 10.8574 23.1833C11.4809 22.1655 12.2354 21.0208 12.9795 19.9294C14.4567 17.7629 15.9605 15.704 16.4004 15.1541C16.7364 14.7341 18.2133 13.0601 20.0645 11.2263C21.8935 9.41452 24.2608 7.27217 26.3574 6.05835C28.0837 5.05888 28.8373 4.38621 29.7305 3.70776C30.731 2.94776 31.7213 2.34402 33.6289 1.76343L33.9062 1.68335C35.2839 1.30959 36.4925 1.31901 37.4287 1.42261C37.9198 1.47698 38.3373 1.55793 38.6279 1.61499C38.7158 1.63225 38.7838 1.64466 38.834 1.65405C38.9087 1.63034 39.0046 1.59822 39.127 1.55542C39.4662 1.43677 39.999 1.24033 40.5322 1.07788C41.0694 0.914243 41.7299 0.746101 42.4053 0.693116ZM56.3799 1.06909C57.1625 0.67502 57.982 0.645089 58.5947 0.693116C59.27 0.746114 59.9306 0.914255 60.4678 1.07788C61.001 1.24032 61.5338 1.43679 61.873 1.55542C61.9954 1.59819 62.0913 1.63035 62.166 1.65405C62.2162 1.64466 62.2842 1.63224 62.3721 1.61499C62.6627 1.55793 63.0802 1.47698 63.5713 1.42261C64.5075 1.31902 65.7161 1.30961 67.0938 1.68335L67.3711 1.76343C69.2786 2.34401 70.269 2.94778 71.2695 3.70776C72.1627 4.38619 72.9163 5.05892 74.6426 6.05835C76.7391 7.27219 79.1066 9.41455 80.9355 11.2263C82.7866 13.06 84.2636 14.7341 84.5996 15.1541C85.0396 15.7041 86.5434 17.763 88.0205 19.9294C88.7646 21.0208 89.5191 22.1655 90.1426 23.1833C90.6996 24.0927 91.2321 25.0289 91.5205 25.7585L91.5752 25.9011C91.8304 26.6028 92.1313 27.3337 92.4453 28.0457L92.7627 28.7498C93.1722 29.6425 93.7039 30.5293 94.3076 31.5007C94.818 32.322 95.3939 33.2247 95.9053 34.156L96.1191 34.5574C96.5066 35.2986 96.8845 36.0851 97.2051 36.8132L97.3389 37.1218C97.9704 38.5975 98.1637 40.1418 98.2998 41.4187C98.39 42.2643 98.5097 43.2526 98.624 44.2195C98.8943 46.5043 99.1673 48.711 99.7012 50.7703L99.8115 51.1794C100.066 52.0908 100.333 53.0947 100.538 54.0369C100.736 54.9476 100.904 55.9299 100.904 56.7546C100.904 57.5139 100.712 58.4224 100.508 59.2253C100.292 60.0742 100.009 61.0112 99.7412 61.8884C99.4665 62.787 99.2092 63.6173 99.0176 64.325C98.9225 64.676 98.8514 64.9706 98.8047 65.2068C98.7816 65.3236 98.7665 65.4152 98.7578 65.4841C98.7509 65.5394 98.7493 65.5683 98.749 65.575C98.749 67.1188 98.5541 69.2458 97.9971 71.3367C97.451 73.3862 96.4895 75.6593 94.7754 77.2175L94.668 77.3171C93.5553 78.3771 92.1893 80.4072 91.1143 82.4089C90.0081 84.4685 88.5484 86.6747 86.3486 88.2214L85.6465 88.7117C82.082 91.1803 77.7735 93.9074 76.8555 94.4812L76.7461 94.5535C76.4745 94.7422 76.0735 95.0759 75.3115 95.6599C74.5331 96.2565 73.5351 96.9822 72.3535 97.6648C69.994 99.0279 66.8126 100.269 63.0332 99.949L62.8965 99.9353C62.5832 99.8999 62.3194 99.8409 62.1953 99.8162C62.0412 99.7854 61.9994 99.7829 61.96 99.783L61.6289 99.782C60.8307 99.7771 59.8626 99.7404 58.9326 99.5222C57.8338 99.2643 56.6234 98.7156 55.75 97.53C54.1851 95.4054 52.5346 92.0564 52.2998 87.8318C52.1176 84.5519 52.2654 81.8225 52.5088 79.8054L52.5596 79.4119C52.7085 78.2902 53.0418 77.254 53.3457 76.366C53.6676 75.4255 53.9426 74.6823 54.127 73.9041C54.3563 72.9357 54.5205 71.6726 54.4551 70.1677L54.4346 69.7781C54.3231 67.8488 54.0251 66.2188 53.7275 64.6394C53.4172 62.9923 53.0811 61.2843 53.0811 59.4988C53.0811 57.7686 53.5288 55.6368 53.9316 53.7205C54.3589 51.6881 54.7597 49.8007 54.8477 48.2185C54.9276 46.7792 54.6689 45.9707 54.2979 44.1951C53.9265 42.4179 53.5678 40.11 53.6699 36.1248C53.8663 28.4647 53.6572 21.6252 52.9268 18.155C52.1809 14.6124 51.2364 11.9231 52.3613 7.64819C52.853 5.77971 53.2989 4.42403 53.8848 3.4148C54.5067 2.34369 55.2382 1.73904 56.0586 1.24976L56.2246 1.15308L56.3799 1.06909ZM42.7119 4.60034C42.4503 4.62087 42.1027 4.69753 41.6748 4.82788C41.2432 4.95937 40.8521 5.10578 40.4209 5.25659C40.2235 5.32562 40 5.40058 39.7891 5.45972C39.619 5.5074 39.278 5.59838 38.9033 5.59839C38.5135 5.59839 38.0454 5.49552 37.873 5.46167C37.5943 5.40693 37.3138 5.35317 36.9971 5.31812C36.4174 5.25398 35.7218 5.25222 34.9297 5.46753L34.7705 5.51441C33.3462 5.94789 32.767 6.32439 32.1016 6.82983C31.3289 7.41678 30.3183 8.29477 28.3213 9.45093C26.694 10.3931 24.6302 12.2215 22.8232 14.0115C21.0391 15.7788 19.674 17.3382 19.4619 17.6033C19.1176 18.0337 17.6813 19.9933 16.2188 22.1384C15.493 23.2028 14.7772 24.2883 14.2002 25.2302C13.6698 26.0962 13.3245 26.7336 13.166 27.1003L13.1094 27.241C12.7685 28.1783 12.366 29.1313 11.9697 30.0115L11.8008 30.3835C11.278 31.5234 10.6273 32.5957 10.0225 33.5691C9.39711 34.5754 8.82978 35.4635 8.35449 36.3728C7.9581 37.1312 7.57177 37.9473 7.26465 38.6648C6.8875 39.5462 6.73333 40.5622 6.59766 41.8347C6.5044 42.7093 6.38192 43.7292 6.26953 44.6794C6.00369 46.927 5.70658 49.3923 5.0918 51.7625L4.96387 52.2351C4.7153 53.1247 4.472 54.0412 4.29199 54.8699C4.10527 55.7296 4.01567 56.3706 4.01562 56.7546C4.01565 56.9802 4.09153 57.4713 4.29199 58.2615C4.48086 59.0059 4.73709 59.8575 5.00781 60.7429C5.27199 61.6069 5.55402 62.5154 5.7666 63.3005C5.96035 64.0161 6.17086 64.8837 6.1709 65.575C6.17092 66.8374 6.33575 68.6189 6.79102 70.3279C7.25737 72.0782 7.96109 73.4987 8.86133 74.3171L9.01562 74.4597C10.6049 75.9677 12.2111 78.4536 13.3389 80.5535C14.3453 82.4276 15.4535 83.993 16.9062 85.0144L17.5918 85.4929C21.0743 87.9046 25.3179 90.5915 26.2227 91.157L26.415 91.2839C26.8899 91.61 27.5284 92.131 28.0732 92.5486C28.7888 93.097 29.6349 93.7094 30.6074 94.2712C32.5565 95.3972 34.9281 96.2718 37.6357 96.0427L37.7061 96.0349C37.7759 96.0252 37.8559 96.0078 38.0381 95.9714C38.2683 95.9255 38.6129 95.8615 39.0459 95.8621H39.3623C40.0814 95.8564 40.6749 95.8224 41.1719 95.7058C41.7032 95.5811 41.9494 95.4007 42.0938 95.2048C43.2993 93.568 44.6016 90.935 44.7861 87.614C44.9554 84.5679 44.8158 82.0697 44.5996 80.2771L44.5547 79.9275C44.4606 79.2193 44.2403 78.4964 43.9453 77.6345C43.6682 76.825 43.2997 75.8254 43.0586 74.8074C42.7501 73.5048 42.5471 71.8808 42.6289 69.9978L42.6514 69.5515C42.7791 67.3453 43.1213 65.5038 43.4209 63.9138C43.7475 62.1802 43.999 60.849 43.999 59.4988C43.999 58.2631 43.6625 56.5729 43.2324 54.5271C42.8268 52.5974 42.3464 50.3808 42.2383 48.4353C42.1223 46.347 42.5493 44.9003 42.8643 43.3933C43.1789 41.8876 43.5059 39.8833 43.4121 36.2253C43.2165 28.5981 43.3999 21.3255 44.2373 17.3474C45.0594 13.4422 45.6826 11.818 44.8477 8.64526C44.3596 6.79085 44.0215 5.89227 43.7256 5.38257C43.5181 5.02531 43.3339 4.85193 42.9014 4.59839C42.8682 4.5958 42.8074 4.59288 42.7119 4.60034ZM58.0986 4.59839C57.666 4.85195 57.4819 5.02529 57.2744 5.38257C56.9785 5.89225 56.6404 6.79077 56.1523 8.64526C55.3174 11.8181 55.9406 13.4422 56.7627 17.3474C57.6001 21.3255 57.7835 28.5981 57.5879 36.2253C57.4941 39.8833 57.8211 41.8876 58.1357 43.3933C58.4507 44.9003 58.8777 46.3471 58.7617 48.4353C58.6536 50.3808 58.1732 52.5974 57.7676 54.5271C57.3375 56.5729 57.001 58.2631 57.001 59.4988C57.001 60.849 57.2525 62.1802 57.5791 63.9138C57.8787 65.5038 58.2209 67.3453 58.3486 69.5515L58.3711 69.9978C58.4529 71.8808 58.2499 73.5048 57.9414 74.8074C57.7003 75.8254 57.3318 76.825 57.0547 77.6345C56.7597 78.4965 56.5394 79.2193 56.4453 79.9275L56.4004 80.2771C56.1842 82.0697 56.0446 84.5679 56.2139 87.614C56.3984 90.935 57.7007 93.568 58.9062 95.2048C59.0506 95.4007 59.2968 95.5811 59.8281 95.7058C60.325 95.8224 60.9186 95.8564 61.6377 95.8621H61.9541C62.387 95.8615 62.7318 95.9255 62.9619 95.9714C63.144 96.0077 63.2241 96.0252 63.2939 96.0349L63.3643 96.0427C66.0718 96.2718 68.4435 95.3972 70.3926 94.2712C71.3651 93.7094 72.2112 93.097 72.9268 92.5486C73.4716 92.131 74.1101 91.61 74.585 91.2839L74.7773 91.157C75.6822 90.5914 79.9258 87.9045 83.4082 85.4929L84.0938 85.0144C85.5465 83.9929 86.6547 82.4276 87.6611 80.5535C88.7889 78.4535 90.3951 75.9677 91.9844 74.4597L92.1387 74.3171C93.0389 73.4987 93.7426 72.0782 94.209 70.3279C94.6642 68.6189 94.8291 66.8374 94.8291 65.575C94.8291 64.8837 95.0396 64.0162 95.2334 63.3005C95.446 62.5154 95.728 61.6069 95.9922 60.7429C96.2629 59.8575 96.5191 59.0059 96.708 58.2615C96.9085 57.4713 96.9843 56.9802 96.9844 56.7546C96.9843 56.3706 96.8947 55.7296 96.708 54.8699C96.528 54.0412 96.2847 53.1247 96.0361 52.2351L95.9082 51.7625C95.2934 49.3923 94.9963 46.927 94.7305 44.6794C94.6181 43.7292 94.4956 42.7093 94.4023 41.8347C94.2667 40.5623 94.1125 39.5462 93.7354 38.6648C93.4282 37.9473 93.0419 37.1312 92.6455 36.3728C92.1702 35.4635 91.6029 34.5754 90.9775 33.5691C90.3727 32.5957 89.722 31.5234 89.1992 30.3835L89.0303 30.0115C88.634 29.1313 88.2315 28.1783 87.8906 27.241L87.834 27.1003C87.6755 26.7336 87.3302 26.0962 86.7998 25.2302C86.2229 24.2883 85.507 23.2028 84.7812 22.1384C83.3188 19.9934 81.8825 18.0338 81.5381 17.6033C81.326 17.3382 79.9608 15.7788 78.1768 14.0115C76.3698 12.2215 74.306 10.3931 72.6787 9.45093C70.6818 8.29481 69.6711 7.41678 68.8984 6.82983C68.233 6.3244 67.6537 5.94787 66.2295 5.51441L66.0703 5.46753C65.2783 5.25223 64.5826 5.254 64.0029 5.31812C63.6863 5.35316 63.4057 5.40694 63.127 5.46167C62.9546 5.49551 62.4865 5.59836 62.0967 5.59839C61.7221 5.59838 61.3811 5.50741 61.2109 5.45972C61.0001 5.40059 60.7765 5.32561 60.5791 5.25659C60.1479 5.1058 59.7568 4.95936 59.3252 4.82788C58.8973 4.69755 58.5497 4.62088 58.2881 4.60034C58.1927 4.59289 58.1318 4.5958 58.0986 4.59839ZM10.6709 66.2009C11.3845 65.4325 12.5716 65.3657 13.3662 66.032L13.4414 66.0984C14.1988 66.8017 15.2522 67.6927 17.9141 69.448L18.4678 69.8113C20.167 70.9158 22.171 71.6327 24.6719 72.2996C25.9215 72.6328 27.2529 72.9431 28.7168 73.2898C29.9884 73.591 31.346 73.917 32.7803 74.2976L33.3994 74.4636C36.9682 75.437 39.1509 77.0702 40.2412 79.2156C41.2908 81.2811 41.1065 83.421 40.9004 84.864L40.8779 85.0066C40.6338 86.4796 39.8848 87.8907 39.1406 88.9861C38.4075 90.0651 37.5507 91.0248 36.8291 91.655L36.6865 91.7761L36.6074 91.8396C35.7783 92.462 34.5971 92.3314 33.9258 91.5261C33.2546 90.7206 33.339 89.5351 34.1006 88.8318L34.1768 88.7654L34.3486 88.615C34.7738 88.2249 35.3641 87.5679 35.8975 86.783C36.4817 85.923 36.8725 85.0914 36.998 84.4382L37.0195 84.3093C37.2053 83.0086 37.2162 81.9142 36.7471 80.991C36.3183 80.1475 35.2667 79.0364 32.3682 78.2458L31.7734 78.0857C30.3956 77.72 29.081 77.4044 27.8135 77.1042C26.3755 76.7637 24.9774 76.4386 23.6611 76.0876C21.0302 75.3861 18.5517 74.5418 16.3311 73.0984L15.7539 72.7195C12.9684 70.8826 11.731 69.8606 10.7734 68.9714L10.7021 68.9011C9.97897 68.158 9.95747 66.9694 10.6709 66.2009ZM87.625 66.032C88.4195 65.3657 89.6057 65.4327 90.3193 66.2009C91.0329 66.9694 91.0123 68.158 90.2891 68.9011L90.2168 68.9714C89.2593 69.8606 88.0225 70.8828 85.2373 72.7195L84.6592 73.0984C82.4386 74.5417 79.96 75.3861 77.3291 76.0876C76.013 76.4386 74.6155 76.7637 73.1777 77.1042C71.9103 77.4044 70.5956 77.72 69.2178 78.0857L68.623 78.2458C65.7246 79.0364 64.673 80.1475 64.2441 80.991C63.775 81.9142 63.7859 83.0086 63.9717 84.3093L63.9932 84.4382C64.1187 85.0914 64.5086 85.9231 65.0928 86.783C65.6261 87.5679 66.2173 88.2249 66.6426 88.615L66.8135 88.7654L66.8896 88.8318C67.6516 89.5351 67.7358 90.7205 67.0645 91.5261C66.3932 92.3311 65.2127 92.4617 64.3838 91.8396L64.3047 91.7761L64.1621 91.655C63.4405 91.0248 62.5837 90.0651 61.8506 88.9861C61.1064 87.8907 60.3574 86.4796 60.1133 85.0066L60.0908 84.864C59.8847 83.4211 59.6996 81.281 60.749 79.2156C61.8393 77.0703 64.0223 75.437 67.5908 74.4636L68.2109 74.2976C69.6452 73.917 71.0028 73.591 72.2744 73.2898C73.7383 72.9431 75.0697 72.6328 76.3193 72.2996C78.82 71.6327 80.8233 70.9157 82.5225 69.8113L83.0771 69.448C85.7388 67.6928 86.7924 66.8017 87.5498 66.0984L87.625 66.032ZM19.9453 80.2966C20.4578 79.3821 21.5944 79.0378 22.5234 79.4978L22.6133 79.5447L22.9629 79.738C26.3436 81.5766 29.7168 82.6384 31.2002 82.9988L31.4795 83.0632L31.5781 83.0876C32.5786 83.3591 33.2012 84.3707 32.9785 85.3953C32.7557 86.4199 31.7691 87.0815 30.7461 86.9128L30.6465 86.8943L30.3057 86.8152C28.5209 86.3842 24.8099 85.2052 21.083 83.1775L20.6973 82.9646L20.6113 82.9138C19.7333 82.362 19.4329 81.2116 19.9453 80.2966ZM78.0186 79.4978C78.9477 79.0375 80.0852 79.3818 80.5977 80.2966C81.1101 81.2116 80.8096 82.362 79.9316 82.9138L79.8447 82.9646L79.46 83.1775C75.7334 85.2051 72.0222 86.3841 70.2373 86.8152L69.8955 86.8943L69.7969 86.9128C68.7738 87.0816 67.7873 86.4199 67.5645 85.3953C67.3417 84.3706 67.9641 83.359 68.9648 83.0876L69.0625 83.0632L69.3418 82.9988C70.8252 82.6385 74.1992 81.5767 77.5801 79.738L77.9297 79.5447L78.0186 79.4978ZM28.3506 29.6658C29.0225 28.8174 30.2549 28.6747 31.1035 29.3464C31.9522 30.0183 32.0957 31.2507 31.4238 32.0994C30.8904 32.7732 30.0522 34.0262 29.375 35.4753C28.6824 36.9574 28.2613 38.4285 28.3174 39.6091L28.3369 39.9197C28.5926 43.0888 30.4203 45.4718 33.2061 46.7195C36.4384 47.9928 38.524 50.9992 39.7129 53.905C40.8786 56.7546 41.3644 59.9418 41.0684 62.3074L41.0371 62.5339C40.2213 67.9709 35.5554 69.4117 33.8906 69.8279C32.6579 70.1361 31.2905 70.2647 29.543 69.8123C27.8707 69.3792 25.9466 68.4391 23.5078 66.8132C20.3163 64.6855 18.2935 63.0692 16.7881 61.7771C15.2114 60.4238 14.4425 59.653 13.4463 58.9285C12.3114 58.1031 11.1961 57.1825 10.2871 55.9705C9.41677 54.8099 8.78824 53.4548 8.42871 51.7732L8.36133 51.4324L8.34473 51.3318C8.20585 50.3046 8.89544 49.3376 9.92578 49.1443C10.9565 48.951 11.95 49.6029 12.1924 50.6111L12.2139 50.7097L12.2617 50.947C12.5105 52.1146 12.9153 52.9421 13.4229 53.6189C13.9838 54.3668 14.731 55.015 15.752 55.7576C16.9117 56.601 18.0197 57.6686 19.3408 58.8025C20.7333 59.9976 22.6305 61.5168 25.6826 63.5515C27.9476 65.0615 29.4537 65.7398 30.5254 66.0173C31.5215 66.2752 32.2124 66.2069 32.9395 66.0251C34.4107 65.6573 36.7336 64.8017 37.1611 61.9519L37.1807 61.8054C37.371 60.2572 37.0551 57.7621 36.085 55.3904C35.077 52.9265 33.5566 51.0543 31.7314 50.3523L31.6846 50.3347L31.6396 50.3142C27.5394 48.4919 24.7236 44.8118 24.4141 40.0251L24.4014 39.7966C24.3008 37.6846 25.023 35.5287 25.8232 33.8162C26.6388 32.0708 27.6428 30.5598 28.3506 29.6658ZM69.7285 29.3464C70.5772 28.6746 71.8105 28.8172 72.4824 29.6658C73.1902 30.5598 74.1942 32.0708 75.0098 33.8162C75.81 35.5286 76.5312 37.6846 76.4307 39.7966L76.4189 40.0251C76.1094 44.8118 73.2936 48.4919 69.1934 50.3142L69.1475 50.3347L69.1006 50.3523C67.2757 51.0544 65.7559 52.9267 64.748 55.3904C63.7779 57.7621 63.461 60.2572 63.6514 61.8054L63.6719 61.9519C64.0993 64.8014 66.4213 65.6573 67.8926 66.0251C68.6197 66.2069 69.3114 66.2753 70.3076 66.0173C71.3793 65.7398 72.8855 65.0614 75.1504 63.5515C78.2024 61.5168 80.0998 59.9976 81.4922 58.8025C82.8133 57.6686 83.9214 56.601 85.0811 55.7576C86.1019 55.0152 86.8483 54.3667 87.4092 53.6189C87.9168 52.9421 88.3225 52.1147 88.5713 50.947L88.6191 50.7097L88.6406 50.6111C88.883 49.6029 89.8766 48.9511 90.9072 49.1443C91.9374 49.3377 92.6271 50.3047 92.4883 51.3318L92.4717 51.4324L92.4033 51.7732C92.0438 53.4547 91.4162 54.81 90.5459 55.9705C89.6369 57.1825 88.5207 58.1031 87.3857 58.9285C86.3898 59.6529 85.6214 60.424 84.0449 61.7771C82.5395 63.0692 80.516 64.6854 77.3242 66.8132C74.8857 68.4389 72.9622 69.3792 71.29 69.8123C69.5426 70.2647 68.1751 70.136 66.9424 69.8279C65.2775 69.4116 60.6107 67.9709 59.7949 62.5339L59.7637 62.3074C59.4676 59.9418 59.9544 56.7546 61.1201 53.905C62.309 50.9992 64.3946 47.9928 67.627 46.7195C70.4126 45.4718 72.2404 43.0887 72.4961 39.9197L72.5156 39.6091C72.5717 38.4285 72.1506 36.9574 71.458 35.4753C70.7808 34.0263 69.9427 32.7733 69.4092 32.0994C68.7375 31.2508 68.8802 30.0184 69.7285 29.3464ZM31.7607 20.2878L32.0098 20.3054L32.1104 20.3162C33.138 20.4545 33.8878 21.3766 33.8008 22.4216C33.7136 23.4666 32.8215 24.2512 31.7852 24.2175L31.6846 24.2117L31.5254 24.2009C29.8575 24.1031 27.4642 24.5935 25.1816 26.4001C22.8462 28.2488 20.4982 31.582 19.2676 37.3865C18.807 39.5594 18.8076 41.7915 19.3496 43.8708L19.46 44.2781C21.7571 52.481 27.5003 55.4904 31.5078 56.5144L31.8955 56.6091L31.9941 56.6345C32.9911 56.9187 33.6009 57.9382 33.3652 58.9597C33.1293 59.9813 32.1341 60.6306 31.1133 60.449L31.0146 60.4285L30.7764 60.3718C25.8153 59.1638 18.513 55.4178 15.6895 45.3513L15.5566 44.8601C14.8433 42.1234 14.8611 39.2688 15.4326 36.573C16.8144 30.0555 19.5637 25.8477 22.748 23.3269C25.8126 20.9011 29.1633 20.1342 31.7607 20.2878ZM68.9775 20.2878C71.575 20.1342 74.9256 20.9011 77.9902 23.3269C81.1747 25.8476 83.9238 30.0554 85.3057 36.573C85.8772 39.2689 85.895 42.1234 85.1816 44.8601L85.0488 45.3513C82.2253 55.4178 74.923 59.1638 69.9619 60.3718L69.7236 60.4285L69.625 60.449C68.6042 60.6306 67.6089 59.9813 67.373 58.9597C67.1374 57.938 67.748 56.9186 68.7451 56.6345L68.8428 56.6091L69.2305 56.5144C73.238 55.4904 78.9811 52.481 81.2783 44.2781L81.3887 43.8708C81.9306 41.7916 81.9323 39.5594 81.4717 37.3865C80.2411 31.5821 77.893 28.2488 75.5576 26.4001C73.275 24.5933 70.8809 24.1031 69.2129 24.2009L69.0537 24.2117L68.9531 24.2175C67.9169 24.2511 67.0257 23.4665 66.9385 22.4216C66.8515 21.3767 67.6004 20.4546 68.6279 20.3162L68.7285 20.3054L68.9775 20.2878ZM33.1738 10.5447C34.705 10.1303 36.2077 9.98746 37.0742 10.1013L37.1523 10.1111C37.1734 10.114 37.185 10.1157 37.1943 10.1169L37.1748 10.116C40.2296 10.2769 42.2759 13.2993 41.3262 16.1794L41.2783 16.3162L39.8867 20.1453C39.6303 20.8505 39.5129 21.579 39.5439 22.3015L39.6904 25.6863C39.7493 27.0905 39.8153 28.7526 39.8818 30.6169L39.8906 30.8962C39.9552 33.7535 39.4165 35.8749 38.4521 37.3972C37.4364 39.0006 36.0443 39.7815 34.8115 40.0496C33.754 40.2794 32.7106 39.609 32.4805 38.5515C32.2506 37.4939 32.921 36.4496 33.9785 36.2195C34.2483 36.1608 34.7191 35.9649 35.1406 35.2996C35.5686 34.6239 36.0246 33.3347 35.9717 30.9871L35.9648 30.7566C35.8986 28.9013 35.8321 27.2486 35.7734 25.8503L35.6279 22.4695C35.5737 21.2072 35.7797 19.9673 36.2021 18.8054L37.5947 14.9763L37.6201 14.8933C37.7109 14.5018 37.4514 14.1103 37.0557 14.0408L36.9688 14.031C36.8569 14.0251 36.7605 14.014 36.6953 14.0056C36.6629 14.0015 36.6319 13.9968 36.6113 13.9939L36.5635 13.9871C36.5672 13.9876 36.5003 13.9802 36.3477 13.9832C36.205 13.9859 36.0192 13.9971 35.7969 14.0212C35.3508 14.0697 34.796 14.1671 34.1982 14.3289C32.9767 14.6595 31.7292 15.2202 30.8252 16.0544C30.0298 16.7886 28.7889 16.7394 28.0547 15.9441C27.3208 15.1487 27.3708 13.9087 28.166 13.1746C29.6961 11.7622 31.5985 10.9711 33.1738 10.5447ZM63.6641 10.1013C64.5306 9.98746 66.0333 10.1303 67.5645 10.5447C69.1399 10.9711 71.043 11.7621 72.5732 13.1746C73.3683 13.9088 73.4175 15.1488 72.6836 15.9441C71.9494 16.7394 70.7094 16.7886 69.9141 16.0544C69.01 15.22 67.7618 14.6596 66.54 14.3289C65.9424 14.1671 65.3874 14.0697 64.9414 14.0212C64.7191 13.9971 64.5333 13.9859 64.3906 13.9832C64.2412 13.9803 64.1741 13.9872 64.1748 13.9871L64.127 13.9939C64.1064 13.9968 64.0754 14.0015 64.043 14.0056C63.9778 14.014 63.8812 14.0251 63.7695 14.031L63.6826 14.0408C63.287 14.1104 63.0284 14.5019 63.1191 14.8933L63.1436 14.9763L64.5361 18.8054C64.9586 19.9673 65.1655 21.2072 65.1113 22.4695L64.9648 25.8503C64.9062 27.2486 64.8407 28.9013 64.7744 30.7566L64.7676 30.9871C64.7146 33.3347 65.1697 34.6239 65.5977 35.2996C66.0192 35.965 66.4899 36.1608 66.7598 36.2195C67.8174 36.4495 68.4887 37.4938 68.2588 38.5515C68.0287 39.6091 66.9844 40.2795 65.9268 40.0496C64.694 39.7815 63.3018 39.0005 62.2861 37.3972C61.3218 35.8749 60.7841 33.7534 60.8486 30.8962L60.8564 30.6169C60.923 28.7526 60.9899 27.0905 61.0488 25.6863L61.1943 22.3015C61.2253 21.579 61.1089 20.8504 60.8525 20.1453L59.46 16.3162L59.4121 16.1794C58.4624 13.2993 60.5088 10.277 63.5635 10.116L63.5439 10.1169C63.5533 10.1157 63.5649 10.114 63.5859 10.1111L63.6641 10.1013Z" fill="#10D48E"/>
</svg>
