<svg width="173" height="178" viewBox="0 0 173 178" fill="none" xmlns="http://www.w3.org/2000/svg">
<path d="M77.1124 161.392C76.0371 165.138 74.2895 168.475 71.3425 171.101C66.7096 175.229 61.1699 174.438 57.9575 169.106C56.4927 166.676 55.7538 163.992 55.7627 161.121C55.7673 159.21 55.7627 157.295 55.7627 154.847C53.4264 157.029 51.9132 159.513 49.5503 161.139C46.9439 162.93 44.307 164.289 41.0369 164.156C37.3777 164.01 35.037 162.436 33.7139 158.939C32.6343 156.091 32.5812 153.207 33.4794 150.292C34.1697 148.057 34.8246 145.813 35.4972 143.57L35.5325 143.605C33.975 143.641 32.8069 144.64 31.4883 145.253C28.7803 146.515 26.0015 147.28 22.9705 147.155C16.3156 146.884 12.6386 141.428 14.9882 135.127C16.5103 131.048 19.0501 127.671 22.9219 124.485C21.0148 124.694 19.705 124.916 18.3908 124.969C16.6298 125.04 14.8333 125.173 13.0988 124.942C8.68282 124.356 4.58542 122.885 3.15179 118.131C1.82435 113.727 4.29783 110.452 7.31556 107.622C9.65626 105.431 12.5457 104.049 15.4882 102.578C11.6297 101.578 8.08991 100.437 5.02349 98.0817C-0.812817 93.5936 -1.48981 86.5419 5.88634 82.3162C9.30228 80.3566 13.1696 80.219 17.4174 79.4277C16.0324 78.2548 14.9395 77.2016 13.7271 76.3173C10.8775 74.2379 9.05006 71.4565 7.99253 68.1371C6.45271 63.298 8.93505 58.8367 13.8245 57.5661C17.4793 56.6151 21.0723 56.8995 24.6298 58.0904C25.882 58.5081 27.1652 58.8235 28.4307 59.1878L28.3953 59.2234C26.8157 56.5796 25.0103 54.0823 23.913 51.1408C22.9971 48.6879 22.8289 46.204 23.2139 43.7335C24.0811 38.148 29.4927 35.4642 35.5192 37.5793C37.7361 38.3569 39.86 39.4144 41.6917 40.943C42.59 41.6894 43.4308 42.5115 45.0549 42.9025C44.183 39.5255 44.0857 36.3529 44.2892 33.1846C44.5414 29.3099 45.7582 25.764 49.6343 24.2222C53.5283 22.6758 57.0461 23.72 60.1655 26.6172C62.4397 28.7278 64.0285 31.3628 65.9443 33.9756C66.8467 32.3759 67.0727 30.954 67.3071 29.5232C67.7981 26.515 69.1966 23.9778 71.3204 21.8138C75.7938 17.2504 81.5284 17.8013 85.1035 23.1157C87.0417 25.9951 87.8912 29.2611 88.608 32.5892C89.0595 33.0247 89.0858 34.2911 90.21 33.4113C91.8251 30.3853 93.8292 27.7236 96.639 25.6529C99.6301 23.449 102.882 22.8625 106.223 24.1955C109.732 25.5996 111.095 28.8123 111.453 32.3404C111.794 35.7041 111.674 39.0945 110.515 42.7426C112.732 42.2493 113.781 40.7252 115.188 39.8454C118.007 38.0769 120.936 36.9305 124.303 36.9572C129.223 36.9972 132.661 40.2276 132.728 45.1732C132.79 49.7944 131.015 53.8024 128.254 57.4193C127.927 58.4147 128.192 58.8015 129.237 58.3837C133.192 57.3616 136.98 56.0952 141.299 57.2594C147.595 58.9522 149.343 63.4891 147.082 69.5635C145.467 73.8958 141.861 76.5664 137.361 79.4502C140.666 79.8145 143.369 79.6455 145.927 80.4631C147.626 81.0099 149.303 81.5609 150.755 82.556C156.737 86.6531 157.131 92.2161 151.551 97.233C148.312 100.144 144.25 101.556 139.374 102.09C141.56 103.17 143.338 103.996 145.064 104.916C147.993 106.475 150.316 108.697 151.87 111.652C154.418 116.486 152.87 121.103 147.909 123.423C143.887 125.307 139.679 125.356 135.409 124.476C134.852 124.36 134.294 124.258 132.9 123.987C135.4 126.275 137.321 128.039 138.715 130.274C139.498 131.532 140.232 132.79 140.737 134.189C141.993 137.709 142.325 141.179 139.639 144.187C137.015 147.133 133.516 147.457 129.887 146.871C126.803 146.373 123.998 145.08 121.32 143.494C120.949 143.325 120.559 142.912 120.254 143.574C121.555 147.16 123.334 150.59 123.082 154.611C122.958 156.575 122.6 158.451 121.719 160.148C119.847 163.743 115.387 165.112 110.958 163.578C108.254 162.645 106.046 160.957 104.126 158.864C102.944 157.575 101.741 156.304 99.98 154.42C101.338 159.095 100.661 162.921 99.2941 166.658C98.0154 170.15 96.0283 173.034 92.0374 173.581C88.1302 174.118 85.2453 172.07 82.9133 169.235C80.8383 166.707 79.4308 163.783 78.7585 160.539C77.0326 158.509 77.8603 161.517 77.0993 161.388L77.1124 161.392Z" fill="#C8FECA"/>
<path d="M106.869 105.947C107.673 105.746 108.161 104.931 107.959 104.128L104.678 91.0328C104.476 90.2296 103.66 89.7411 102.857 89.9425L89.7628 93.2255C88.9595 93.427 88.4716 94.2418 88.6727 95.0451C88.8742 95.8484 89.6889 96.3365 90.4923 96.1352L100.232 93.6941C99.3654 95.355 98.5639 97.0152 97.7542 98.5966C96.5063 101.034 95.2011 103.363 93.4955 105.537L93.1484 105.97C84.5894 116.439 72.8528 124.21 58.8072 126.912C58.3194 121.432 55.2591 116.235 50.9424 112.606C45.4158 107.961 37.588 105.673 29.9076 108.669L29.542 108.816C27.6058 109.614 26.168 110.798 25.2511 112.264C24.3359 113.727 23.9974 115.381 24.1043 117.022C24.3091 120.165 26.1369 123.319 28.8476 125.507L29.1123 125.715C31.7524 127.743 35.2791 129.068 38.8261 129.876C42.3919 130.688 46.1011 131.005 49.2034 130.935L50.1075 130.909C52.0148 130.839 53.889 130.681 55.7282 130.444C55.719 130.507 55.7114 130.57 55.7013 130.632L55.6007 131.18C52.6813 145.354 40.478 154.294 24.0574 155.588L23.2718 155.644C20.0909 155.846 16.1318 155.79 12.4445 155.06C8.72483 154.324 5.49682 152.946 3.52275 150.682C2.97833 150.058 2.03024 149.993 1.40592 150.537C0.781856 151.081 0.717251 152.028 1.26078 152.653C3.87198 155.648 7.87214 157.214 11.8629 158.003C15.8862 158.799 20.122 158.85 23.462 158.638L24.2926 158.579C41.6658 157.207 55.2797 147.61 58.5392 131.784L58.6621 131.113C58.7243 130.731 58.7705 130.348 58.8055 129.966C73.8547 127.224 86.3984 118.966 95.4711 107.868L95.8547 107.389C97.7407 104.985 99.1492 102.456 100.425 99.9641C101.211 98.4279 101.936 96.9327 102.694 95.463L105.05 104.857C105.251 105.66 106.066 106.148 106.869 105.947ZM55.8358 127.404C53.9276 127.667 51.9794 127.838 49.9939 127.91L49.1361 127.936C46.2664 128 42.8038 127.706 39.4916 126.951C36.161 126.193 33.1014 124.996 30.9394 123.336L30.5188 122.996C28.4695 121.257 27.2338 118.918 27.0976 116.827C27.0263 115.731 27.2542 114.719 27.7948 113.855C28.3339 112.993 29.2425 112.185 30.6857 111.589L31.3015 111.349C37.6686 109.004 44.2237 110.878 49.0121 114.902C52.9192 118.186 55.4939 122.768 55.8358 127.404Z" fill="#585CE5"/>
<path d="M129 64.728L112 79.728L118.5 60.228L129 64.728Z" fill="white"/>
<path d="M102.086 54.6922L77.5593 45.4467C75.9065 44.8237 75.855 42.5045 77.4785 41.8087L171 1.72803L153.526 70.1685C153.243 71.2782 152.073 71.9101 150.989 71.5387L129 63.9995L118 60.228L110.5 81.728L102.086 54.6922Z" fill="white"/>
<path d="M102.086 54.6922L77.5593 45.4467C75.9065 44.8237 75.855 42.5045 77.4785 41.8087L171 1.72803M102.086 54.6922L110.5 81.728M102.086 54.6922L171 1.72803M171 1.72803L153.526 70.1685C153.243 71.2782 152.073 71.9101 150.989 71.5387L129 63.9995M171 1.72803L118 60.228M118 60.228L110.5 81.728M118 60.228L129 63.9995M110.5 81.728L129 63.9995" stroke="#062A23" stroke-width="3" stroke-linecap="round"/>
</svg>
