<svg width="353" height="439" viewBox="0 0 353 439" fill="none" xmlns="http://www.w3.org/2000/svg">
<path d="M182.581 302.095C180.015 309.755 178.803 317.977 173.219 324.361C170.209 327.794 167.143 331.472 161.773 330.239C156.322 328.986 154.936 324.088 153.619 319.66C150.923 310.647 152.08 301.719 152.845 292.569C149.804 292.768 148.279 294.808 146.385 296.169C128.286 309.206 109.19 320.741 88.2786 329.575C83.1192 331.752 77.7375 333.404 72.1882 334.633C70.6794 334.968 69.1684 335.394 67.6213 335.475C62.3978 335.739 56.9737 336.299 52.9965 331.517C48.8331 326.522 50.2212 321.259 52.3213 316.538C56.0527 308.144 62.2838 301.323 68.4167 294.55C81.0686 280.565 96.2047 269.13 111.234 257.606C115.529 254.314 119.785 250.976 124.705 247.168C121.092 245.989 118.313 246.325 115.575 246.207C98.4844 245.458 81.4712 243.855 64.7234 239.09C59.0698 237.481 53.5253 235.562 48.8603 231.849C43.0724 227.236 42.9104 221.576 48.4716 217.203C52.6714 213.903 57.8177 212.337 63.2184 211.339C79.8463 208.277 96.9137 208.604 113.934 208.573C118.088 208.566 122.235 208.489 126.291 208.447C126.625 205.706 124.609 205.04 123.269 203.901C113.711 195.82 104.412 187.523 98.1796 176.701C97.1475 174.905 96.1147 173.059 95.4478 171.137C92.0622 161.419 96.4607 156.343 106.85 158.167C112.884 159.224 118.499 161.614 123.824 164.864C131.82 169.743 138.951 175.696 146.371 181.292C147.917 182.748 148.764 182.257 149.158 180.525C147.923 167.006 145.892 153.503 146.061 139.97C146.169 131.21 146.595 122.533 148.572 114.045C149.317 110.851 150.523 107.917 152.273 105.243C156.807 98.3235 164.524 98.1253 170.575 104.74C174.031 108.511 176.011 113.004 177.81 117.584C183.02 130.852 185.252 144.611 188.047 158.282C188.989 162.905 190.037 167.517 191.287 173.28C193.866 170.649 194.317 168.513 195.064 166.574C199.032 156.332 205.184 147.455 212.83 139.598C217.041 135.276 222.246 130.631 228.972 133.631C235.712 136.638 235.617 143.616 235.446 149.719C235.108 161.919 230.503 172.854 226.299 183.891C225.794 185.213 224.733 186.369 225.272 188.674C228.878 187.452 232.356 186.196 235.897 185.098C241.282 183.424 246.718 181.893 252.547 181.788C254.377 181.756 256.237 181.647 258.04 181.959C266.435 183.404 269.353 188.581 265.661 195.675C263.132 200.539 259.186 204.357 254.968 207.865C251.556 210.702 247.943 213.316 243.861 216.461C246.262 217.723 248.264 217.396 250.184 217.486C267.272 218.326 284.245 220.125 300.985 225.044C307.492 226.959 313.407 229.951 319.043 233.455C328.682 239.449 329.12 248.119 320.403 254.186C311.676 260.272 301.162 261.909 290.586 263.27C275.882 265.154 260.953 264.622 244.55 263.616C250.87 268.441 256.076 272.539 261.421 276.442C266.047 279.818 269.265 284.283 272.514 288.707C274.242 291.06 275.144 293.741 275.065 296.616C274.918 302.105 272.166 304.687 266.351 304.506C259.644 304.299 253.379 302.06 247.338 299.136C243.494 297.275 239.715 295.256 236.037 293.097C232.603 291.075 229.339 288.766 225.416 286.212C225.034 288.56 226.121 290.234 226.785 291.92C230.845 302.219 235.049 312.484 238.012 323.075C241.275 334.735 242.835 346.428 240.631 358.14C240.212 360.352 239.846 362.533 238.651 364.445C236.412 368.032 233.586 368.787 229.428 366.903C225.408 365.083 222.518 361.976 219.715 358.807C210.025 347.856 202.655 335.543 195.776 323.002C191.907 315.946 188.609 308.63 185.049 301.436C183.714 300.216 182.767 300.103 182.574 302.091L182.581 302.095Z" fill="#E1E8FE"/>
<rect x="245.326" y="139.752" width="28.0242" height="49.3226" rx="4" transform="rotate(5.64415 245.326 139.752)" fill="#585CE5"/>
<path d="M246.895 146.665L270.321 148.98L267.014 182.446L245.578 180.328C244.479 180.219 243.676 179.24 243.785 178.141L246.895 146.665Z" fill="#E1E8FE"/>
<rect x="254.03" y="142.865" width="10.0887" height="2.24194" rx="1.12097" transform="rotate(5.64415 254.03 142.865)" fill="#E1E8FE"/>
<circle cx="254.915" cy="185.193" r="2.80242" transform="rotate(5.64415 254.915 185.193)" fill="#E1E8FE"/>
<path d="M255.191 182.404C255.557 182.44 255.913 182.548 256.237 182.722C256.562 182.896 256.849 183.131 257.082 183.416C257.316 183.701 257.491 184.028 257.597 184.38C257.704 184.733 257.74 185.102 257.704 185.469C257.668 185.835 257.56 186.19 257.386 186.515C257.213 186.839 256.977 187.127 256.692 187.36C256.408 187.593 256.08 187.768 255.728 187.875C255.376 187.982 255.006 188.018 254.64 187.982L254.771 186.65C254.963 186.669 255.156 186.65 255.34 186.595C255.524 186.539 255.695 186.447 255.844 186.325C255.993 186.203 256.116 186.053 256.207 185.884C256.297 185.714 256.354 185.528 256.373 185.337C256.391 185.146 256.373 184.953 256.317 184.768C256.261 184.584 256.17 184.413 256.048 184.264C255.926 184.116 255.776 183.993 255.606 183.902C255.436 183.811 255.251 183.755 255.059 183.736L255.191 182.404Z" fill="#1F2847" stroke="#1F2847" stroke-width="0.5" stroke-linejoin="round"/>
<path d="M246.895 146.665L270.321 148.98" stroke="#1F2847" stroke-width="2.5" stroke-linejoin="round"/>
<path d="M254.98 193.752L240.98 194.752L241.48 192.252L239.48 189.252L238.48 181.752L240.98 178.752H247.98L249.98 180.752L245.98 184.752L247.98 186.752L254.98 193.752Z" fill="#E1E8FE"/>
<path d="M186.043 435.405C186.769 436.595 188.063 437.321 189.457 437.321H192.712C194.921 437.321 196.712 435.531 196.712 433.321V411.252C196.712 409.043 194.921 407.252 192.712 407.252H181.712C179.503 407.252 177.712 409.043 177.712 411.252V420.628C177.712 421.363 177.915 422.084 178.298 422.711L186.043 435.405Z" fill="#053F33"/>
<path d="M121.382 435.405C120.655 436.595 119.361 437.321 117.967 437.321H114.712C112.503 437.321 110.712 435.531 110.712 433.321V411.252C110.712 409.043 112.503 407.252 114.712 407.252H125.712C127.921 407.252 129.712 409.043 129.712 411.252V420.628C129.712 421.363 129.51 422.084 129.127 422.711L121.382 435.405Z" fill="#053F33"/>
<path d="M200.212 304.75C209.877 304.75 217.712 312.586 217.712 322.251C217.712 331.915 209.877 339.751 200.212 339.751H217.712V386.89C217.712 400.145 206.967 410.89 193.712 410.89H106.712C96.771 410.89 88.7122 402.832 88.7122 392.89C88.7122 384.297 94.7337 377.111 102.787 375.32C94.7339 373.529 88.7124 366.344 88.7122 357.751C88.7122 347.81 96.771 339.751 106.712 339.751H106.212C96.5473 339.751 88.7124 331.915 88.7122 322.251C88.7122 312.586 96.5472 304.75 106.212 304.75H200.212Z" fill="#9EB3FA"/>
<path d="M263.48 205.252C263.48 205.252 280.645 203.355 270.98 174.252" stroke="#053F33" stroke-width="2.5" stroke-miterlimit="10" stroke-linecap="round"/>
<path d="M197.081 182.257C197.081 182.257 230.794 191.816 234.634 243.712L241.675 193.198C241.675 193.198 232.925 179.117 244.024 178.688C255.122 178.259 245.726 185.089 245.726 185.089C245.726 185.089 255.545 190.209 255.967 197.039" stroke="#053F33" stroke-width="2.5" stroke-miterlimit="10" stroke-linecap="round"/>
<path d="M211.581 278.755C211.581 278.755 287.155 321.555 265.302 205.128" stroke="#053F33" stroke-width="2.5" stroke-miterlimit="10" stroke-linecap="round"/>
<path d="M211.042 436.843C205.848 431.151 208.55 424.477 211.031 420.85C211.383 420.336 211.975 420.051 212.598 420.051L261.475 420.051C261.998 420.051 262.501 420.256 262.876 420.622L276.558 433.993C277.842 435.249 276.954 437.43 275.157 437.43H242.652C242.307 437.43 241.968 437.341 241.667 437.172L229.714 430.427C228.378 429.673 226.725 430.638 226.725 432.172V435.426C226.725 436.533 225.828 437.43 224.721 437.43H212.426C211.903 437.43 211.395 437.23 211.042 436.843Z" fill="white" stroke="#053F33" stroke-width="3.10345"/>
<mask id="path-16-outside-1_2101_4291" maskUnits="userSpaceOnUse" x="140.971" y="140.083" width="53" height="54" fill="black">
<rect fill="white" x="140.971" y="140.083" width="53" height="54"/>
<path d="M186.451 143.083C188.837 143.083 190.771 145.017 190.771 147.403V170.564C190.771 181.722 181.698 190.766 170.506 190.766C159.313 190.766 150.24 181.722 150.24 170.564C150.24 170.456 150.153 170.369 150.045 170.369H147.338C145.478 170.369 143.971 168.886 143.971 167.057C143.971 165.229 145.478 163.746 147.338 163.746C148.941 163.746 150.24 162.446 150.24 160.844V147.403C150.24 145.017 152.174 143.083 154.56 143.083H186.451Z"/>
</mask>
<path d="M186.451 143.083C188.837 143.083 190.771 145.017 190.771 147.403V170.564C190.771 181.722 181.698 190.766 170.506 190.766C159.313 190.766 150.24 181.722 150.24 170.564C150.24 170.456 150.153 170.369 150.045 170.369H147.338C145.478 170.369 143.971 168.886 143.971 167.057C143.971 165.229 145.478 163.746 147.338 163.746C148.941 163.746 150.24 162.446 150.24 160.844V147.403C150.24 145.017 152.174 143.083 154.56 143.083H186.451Z" fill="white"/>
<path d="M190.771 170.564L193.271 170.564V170.564H190.771ZM170.506 190.766V193.266H170.506L170.506 190.766ZM147.338 170.369V167.869V170.369ZM143.971 167.057L141.471 167.057V167.057H143.971ZM190.771 147.403H188.271V170.564H190.771H193.271V147.403H190.771ZM190.771 170.564L188.271 170.564C188.271 180.334 180.325 188.266 170.506 188.266L170.506 190.766L170.506 193.266C183.071 193.266 193.271 183.11 193.271 170.564L190.771 170.564ZM170.506 190.766V188.266C160.687 188.266 152.74 180.334 152.74 170.564L150.24 170.564L147.74 170.564C147.74 183.11 157.94 193.266 170.506 193.266V190.766ZM150.045 170.369V167.869H147.338V170.369V172.869H150.045V170.369ZM147.338 170.369V167.869C146.82 167.869 146.471 167.466 146.471 167.057H143.971H141.471C141.471 170.306 144.137 172.869 147.338 172.869V170.369ZM143.971 167.057L146.471 167.058C146.471 166.648 146.82 166.246 147.338 166.246V163.746V161.246C144.137 161.246 141.471 163.809 141.471 167.057L143.971 167.057ZM150.24 160.844H152.74V147.403H150.24H147.74V160.844H150.24ZM154.56 143.083V145.583H186.451V143.083V140.583H154.56V143.083ZM147.338 163.746V166.246C150.322 166.246 152.74 163.827 152.74 160.844H150.24H147.74C147.74 161.066 147.56 161.246 147.338 161.246V163.746ZM150.24 147.403H152.74C152.74 146.398 153.555 145.583 154.56 145.583V143.083V140.583C150.794 140.583 147.74 143.636 147.74 147.403H150.24ZM150.24 170.564H152.74C152.74 169.076 151.534 167.869 150.045 167.869V170.369V172.869C148.772 172.869 147.74 171.837 147.74 170.564H150.24ZM190.771 147.403H193.271C193.271 143.636 190.218 140.583 186.451 140.583V143.083V145.583C187.457 145.583 188.271 146.398 188.271 147.403H190.771Z" fill="#053F33" mask="url(#path-16-outside-1_2101_4291)"/>
<path d="M160.503 125.763C166.792 123.777 173.5 123.94 179.844 125.162C192.522 127.603 203.862 134.295 207.751 136.775L207.931 136.907C208.707 137.561 208.626 138.737 207.842 139.336L207.663 139.455C205.015 140.984 202.28 142.356 199.471 143.563L198.263 144.07C197.906 144.216 197.755 144.633 197.928 144.965L200.413 149.739L200.489 149.91C200.797 150.72 200.407 151.687 199.488 151.879L199.283 151.908C195.626 152.188 187.69 151.457 180.005 150.561C174.223 149.888 168.543 149.116 164.85 148.595L161.888 148.172C161.578 148.127 161.27 148.327 161.171 148.658L161.142 148.807C160.418 156.287 156.242 160.329 152.259 162.482C150.274 163.555 148.339 164.16 146.9 164.497C146.181 164.665 145.584 164.767 145.164 164.827C144.954 164.857 144.788 164.877 144.674 164.889C144.617 164.895 144.573 164.899 144.542 164.902C144.527 164.903 144.514 164.904 144.506 164.905C144.502 164.905 144.498 164.906 144.496 164.906H144.492L144.225 164.927L144.06 164.715C137.589 156.379 136.839 150.362 138.08 146.23C139.312 142.128 142.461 140.053 143.448 139.487L143.535 139.429C143.618 139.368 143.689 139.292 143.741 139.21L144.178 138.533C148.723 131.635 154.4 127.691 160.503 125.763Z" fill="#053F33" stroke="#053F33" stroke-miterlimit="10" stroke-linecap="round"/>
<path d="M164.752 171.562C163.967 171.562 163.332 170.927 163.332 170.142C163.332 169.358 163.967 168.722 164.752 168.722C165.536 168.722 166.172 169.358 166.172 170.142C166.172 170.927 165.536 171.562 164.752 171.562Z" fill="#053F33"/>
<path d="M186.542 171.562C185.757 171.562 185.122 170.927 185.122 170.142C185.122 169.358 185.757 168.722 186.542 168.722C187.326 168.722 187.962 169.358 187.962 170.142C187.962 170.927 187.326 171.562 186.542 171.562Z" fill="#053F33"/>
<path d="M180.081 178.755V166.755C180.081 164.545 181.872 162.755 184.081 162.755H191.081" stroke="#053F33" stroke-width="2.5" stroke-miterlimit="10" stroke-linecap="round"/>
<path d="M162.081 162.754H173.031" stroke="#053F33" stroke-width="2.5" stroke-miterlimit="10" stroke-linecap="round"/>
<path d="M174.162 181.163C173.24 182.08 171.992 182.595 170.692 182.595C169.391 182.595 168.144 182.08 167.222 181.163" stroke="#053F33" stroke-width="2.5" stroke-miterlimit="10" stroke-linecap="round"/>
<path d="M142.081 179.755C142.081 179.755 114.539 198.991 105.5 233.477C105.5 233.477 112.838 141.284 111.431 137.028C110.024 132.772 103.99 151.153 103.99 151.153C103.99 151.153 78.352 155.877 88.3175 175.555C88.3175 175.555 32.5811 310.255 131.581 277.255" stroke="#053F33" stroke-width="2.5" stroke-miterlimit="10" stroke-linecap="round"/>
<path d="M130.032 109.642C108.853 126.407 101.196 107.065 100.002 95.2271C99.9975 95.1806 100.022 95.1374 100.063 95.1155L129.425 79.6233C129.453 79.6086 129.484 79.6057 129.514 79.6157C138.543 82.648 151.22 92.8683 130.032 109.642Z" fill="#053F33" stroke="#053F33" stroke-width="3.26797" stroke-linecap="round"/>
<path d="M124.838 34.3947C131.087 33.6753 137.084 35.1476 142.059 38.2021C144.618 36.4299 147.637 35.244 150.945 34.8631C158.007 34.0501 164.622 37.1072 168.672 42.3507C169.554 42.076 170.474 41.8788 171.425 41.7693C179.63 40.8248 187.047 46.7102 187.992 54.9151C188.936 63.1198 183.051 70.5367 174.846 71.4813C174.435 71.5286 174.025 71.5569 173.619 71.5705C172.009 76.5668 167.608 80.4194 162.054 81.0589C160.453 81.2431 158.885 81.1449 157.399 80.8053C154.613 85.8105 149.54 89.4473 143.416 90.1525C142.707 90.2341 142.002 90.2728 141.305 90.2735C137.212 98.4761 129.076 104.54 119.15 105.683C103.687 107.463 89.7385 96.6269 87.9947 81.4798C86.7068 70.2925 92.4375 59.8838 101.751 54.4882C104.468 43.9771 113.407 35.7108 124.838 34.3947Z" fill="#C8FECA"/>
<path d="M146.676 76.9386C147.469 81.0895 147.24 84.4824 146.245 87.2205C145.246 89.9705 143.507 91.9679 141.446 93.3653C137.673 95.9225 132.849 96.4607 129.339 96.1737C127.509 98.4134 125.246 99.3355 123.116 99.5098C120.853 99.6948 118.781 99.0403 117.522 98.3588L117.403 98.2859C116.833 97.8978 116.638 97.133 116.973 96.513C117.331 95.8517 118.158 95.6053 118.819 95.9633L119.179 96.1411C120.086 96.5518 121.451 96.9136 122.894 96.7957C124.481 96.6658 126.201 95.9589 127.603 93.9622L127.606 93.9569C127.63 93.9226 127.656 93.8893 127.683 93.8576L127.688 93.8521C127.692 93.8484 127.695 93.8448 127.698 93.8411C127.721 93.8157 127.744 93.7909 127.768 93.7672C127.777 93.7589 127.786 93.7515 127.795 93.7435C127.813 93.7272 127.83 93.7104 127.848 93.6951C127.867 93.6799 127.885 93.6654 127.904 93.6513C127.918 93.6411 127.932 93.6315 127.946 93.6219C127.964 93.6093 127.983 93.5976 128.002 93.586C128.021 93.5741 128.04 93.5626 128.06 93.5518C128.072 93.5448 128.085 93.5382 128.098 93.5317C128.123 93.5186 128.149 93.5066 128.175 93.4952C128.186 93.4904 128.198 93.4851 128.209 93.4805C128.238 93.4689 128.267 93.4585 128.297 93.4488C128.303 93.4467 128.31 93.4446 128.317 93.4426C128.426 93.4087 128.541 93.3882 128.66 93.3834C128.667 93.3831 128.673 93.3832 128.68 93.383C128.702 93.3825 128.723 93.381 128.745 93.3815L128.778 93.3836C128.794 93.3843 128.81 93.3856 128.826 93.3868L128.885 93.3919L129.493 93.4556C132.611 93.7244 136.798 93.2259 139.918 91.1112C141.552 90.0034 142.901 88.4498 143.685 86.2903C144.474 84.1186 144.725 81.2416 144.002 77.4491L145.339 77.1938L146.676 76.9386ZM145.084 75.8558C145.823 75.715 146.535 76.2002 146.676 76.9386L144.002 77.4491C143.861 76.7105 144.346 75.9967 145.084 75.8558Z" fill="#585CE5"/>
<path d="M116.147 65.9165C120.646 64.9638 124.585 67.0675 126.318 68.4663L126.634 68.7356L126.733 68.8344C127.197 69.3454 127.207 70.1345 126.736 70.6585C126.264 71.1826 125.478 71.2552 124.921 70.8478L124.813 70.76L124.572 70.5567C123.246 69.4949 120.126 67.8583 116.712 68.5814C113.28 69.3082 111.665 71.6601 111.216 72.7912L111.141 73.0003C110.918 73.7185 110.155 74.1195 109.437 73.8965C108.719 73.6734 108.317 72.9109 108.54 72.193L108.665 71.8365C108.758 71.598 108.876 71.3397 109.021 71.0681C108.83 71.0338 108.635 71.0095 108.429 71.0005C107.715 70.9698 106.688 71.1119 105.141 71.9423L104.825 72.1183C104.173 72.4913 103.34 72.264 102.967 71.6116C102.594 70.9588 102.821 70.1267 103.474 69.7534L103.858 69.5411C105.753 68.5245 107.259 68.2246 108.545 68.2799C109.214 68.3087 109.777 68.4321 110.231 68.5499C110.482 68.6152 110.665 68.6647 110.816 68.7056C112.048 67.5091 113.793 66.4152 116.147 65.9165Z" fill="#585CE5"/>
<path d="M128.012 49.2557C134.182 44.8226 140.197 44.3454 145.244 45.6796C150.014 46.9406 153.85 49.7974 156.151 52.2787C163.026 50.7453 167.919 52.6923 171.17 55.972C174.254 59.084 175.745 63.2714 176.232 66.393L176.316 67.0026L176.325 67.142C176.337 67.8319 175.825 68.4324 175.125 68.5161C174.425 68.5996 173.786 68.1367 173.635 67.4634L173.611 67.3262L173.538 66.7955C173.113 64.0812 171.808 60.4835 169.236 57.889C166.58 55.2102 162.443 53.458 156.022 55.1075C155.887 55.143 155.748 55.1579 155.609 55.151C155.608 55.1509 155.607 55.1501 155.605 55.1501C155.521 55.1456 155.437 55.1328 155.354 55.1127C155.347 55.111 155.34 55.1092 155.333 55.1074C155.134 55.0555 154.946 54.9589 154.784 54.8179C154.777 54.8118 154.77 54.806 154.763 54.7998C154.753 54.7907 154.742 54.7826 154.732 54.7731L154.688 54.7263C154.68 54.7177 154.672 54.7092 154.664 54.7004L154.637 54.6708L154.257 54.2388C152.259 52.0444 148.805 49.4375 144.548 48.3121C140.221 47.1681 134.99 47.5298 129.443 51.5796L128.905 51.9834C128.432 52.3479 127.726 52.4189 127.168 52.0342L127.058 51.9507C125.382 50.5557 121.021 48.0425 116.561 48.5493L116.423 48.5583C115.733 48.5666 115.134 48.0508 115.054 47.3505C114.969 46.6033 115.507 45.9286 116.254 45.8436L116.769 45.7959C121.452 45.4511 125.763 47.6528 128.012 49.2557Z" fill="#585CE5"/>
<path d="M169.433 27.1926L174.878 20.4607C176.407 18.5699 179.398 18.9798 180.362 21.2122V21.2122C181.327 23.4469 184.322 23.8547 185.85 21.9596L192.173 14.1155" stroke="#585CE5" stroke-width="2.72331" stroke-linecap="round"/>
<path d="M153.776 24.6484L155.526 16.1689C156.018 13.7873 158.863 12.7796 160.744 14.321V14.321C162.627 15.8639 165.475 14.8527 165.963 12.4679L167.983 2.59729" stroke="#585CE5" stroke-width="2.72331" stroke-linecap="round"/>
<path d="M143.062 319.432L245.075 354.74L228.575 414.741H263.075C263.075 414.741 323.075 275.74 196.075 275.74" fill="#062A23"/>
<path d="M114.664 275.74C114.664 275.74 103.915 359.28 208.612 336.226L210.997 414.74H251.288C251.288 414.74 301.435 289.477 195.575 275.74" fill="#053F33"/>
<path d="M164.764 197.783L164.59 197.789C162.875 197.913 161.93 199.869 162.897 201.29L163 201.43L167.366 206.939L163.651 277.024L163.648 277.189C163.655 277.518 163.734 277.842 163.88 278.137L163.958 278.282L171.202 290.617C172.067 292.09 174.174 292.088 175.052 290.668L175.133 290.525L181.603 278.242C181.811 277.848 181.896 277.4 181.85 276.957L174.433 206.882L178.48 201.364C179.569 199.878 178.508 197.784 176.666 197.783L164.764 197.783Z" fill="#9EB3FA" stroke="#053F33" stroke-width="2.5"/>
<path d="M253.383 173.233C253.613 171.713 253.888 170.317 254.206 169.046C254.526 167.759 254.918 166.56 255.382 165.448C255.847 164.32 256.413 163.227 257.08 162.167C257.763 161.109 258.584 160.041 259.543 158.962L251.59 158.176L251.882 155.215L263.633 156.375L263.421 158.525C262.279 159.666 261.333 160.778 260.583 161.862C259.849 162.947 259.257 164.062 258.806 165.207C258.371 166.354 258.006 167.604 257.712 168.958C257.433 170.313 257.169 171.855 256.918 173.582L253.383 173.233Z" fill="#585CE5"/>
<path d="M257.004 425.096C256.365 425.359 256.061 426.089 256.324 426.728C256.586 427.366 257.317 427.67 257.955 427.408L257.004 425.096ZM257.479 426.252L257.955 427.408L266.455 423.908L265.979 422.752L265.504 421.596L257.004 425.096L257.479 426.252Z" fill="#053F33"/>
<path d="M261.004 429.096C260.365 429.359 260.061 430.089 260.324 430.728C260.586 431.366 261.317 431.67 261.955 431.408L261.004 429.096ZM261.479 430.252L261.955 431.408L270.455 427.908L269.979 426.752L269.504 425.596L261.004 429.096L261.479 430.252Z" fill="#053F33"/>
</svg>
