<svg width="288" height="263" viewBox="0 0 288 263" fill="none" xmlns="http://www.w3.org/2000/svg">
<path d="M178.3 116.09V101.66L189.61 98.1501L193.12 101.66L184.54 110.24L178.3 116.09Z" fill="#E1E8FE"/>
<circle cx="60.2602" cy="92.4366" r="18.85" fill="#053F33"/>
<mask id="path-3-outside-1_2106_3539" maskUnits="userSpaceOnUse" x="59.5103" y="50.0866" width="69" height="70" fill="black">
<rect fill="white" x="59.5103" y="50.0866" width="69" height="70"/>
<path d="M118.735 54.0866C121.837 54.0866 124.351 56.601 124.351 59.7026V89.8122C124.351 104.317 112.556 116.076 98.0054 116.076C83.4553 116.076 71.6597 104.317 71.6597 89.8122C71.6597 89.6725 71.5464 89.5593 71.4067 89.5593H67.8872C65.4698 89.5591 63.5103 87.631 63.5103 85.2536C63.5105 82.8764 65.47 80.949 67.8872 80.9489C69.9707 80.9489 71.6597 79.2599 71.6598 77.1765L71.6604 59.7024C71.6606 56.6009 74.1749 54.0866 77.2764 54.0866H118.735Z"/>
</mask>
<path d="M118.735 54.0866C121.837 54.0866 124.351 56.601 124.351 59.7026V89.8122C124.351 104.317 112.556 116.076 98.0054 116.076C83.4553 116.076 71.6597 104.317 71.6597 89.8122C71.6597 89.6725 71.5464 89.5593 71.4067 89.5593H67.8872C65.4698 89.5591 63.5103 87.631 63.5103 85.2536C63.5105 82.8764 65.47 80.949 67.8872 80.9489C69.9707 80.9489 71.6597 79.2599 71.6598 77.1765L71.6604 59.7024C71.6606 56.6009 74.1749 54.0866 77.2764 54.0866H118.735Z" fill="white"/>
<path d="M124.351 89.8122L127.601 89.8122V89.8122H124.351ZM98.0054 116.076L98.0053 119.326H98.0054V116.076ZM67.8872 89.5593L67.887 92.8093H67.8872V89.5593ZM63.5103 85.2536L60.2603 85.2533V85.2536H63.5103ZM71.6604 59.7024L68.4104 59.7023L71.6604 59.7024ZM124.351 59.7026H121.101V89.8122H124.351H127.601V59.7026H124.351ZM124.351 89.8122L121.101 89.8122C121.101 102.513 110.77 112.826 98.0054 112.826V116.076V119.326C114.341 119.326 127.601 106.122 127.601 89.8122L124.351 89.8122ZM98.0054 116.076L98.0054 112.826C85.2406 112.826 74.9097 102.513 74.9097 89.8122L71.6597 89.8122L68.4097 89.8122C68.4097 106.122 81.6699 119.326 98.0053 119.326L98.0054 116.076ZM71.4067 89.5593V86.3093H67.8872V89.5593V92.8093H71.4067V89.5593ZM67.8872 89.5593L67.8874 86.3093C67.2144 86.3092 66.7603 85.7861 66.7603 85.2536H63.5103H60.2603C60.2603 89.4759 63.7252 92.8091 67.887 92.8093L67.8872 89.5593ZM63.5103 85.2536L66.7603 85.2539C66.7603 84.722 67.2139 84.1989 67.8874 84.1989L67.8872 80.9489L67.887 77.6989C63.726 77.6991 60.2607 81.0308 60.2603 85.2533L63.5103 85.2536ZM71.6598 77.1765L74.9098 77.1766L74.9104 59.7025L71.6604 59.7024L68.4104 59.7023L68.4098 77.1763L71.6598 77.1765ZM77.2764 54.0866V57.3366H118.735V54.0866V50.8366H77.2764V54.0866ZM67.8872 80.9489V84.1989C71.7656 84.1989 74.9097 81.0549 74.9098 77.1766L71.6598 77.1765L68.4098 77.1763C68.4098 77.465 68.1758 77.6989 67.8872 77.6989V80.9489ZM71.6604 59.7024L74.9104 59.7025C74.9105 58.3959 75.9698 57.3366 77.2764 57.3366V54.0866V50.8366C72.38 50.8366 68.4106 54.8059 68.4104 59.7023L71.6604 59.7024ZM71.6597 89.8122H74.9097C74.9097 87.8776 73.3414 86.3093 71.4067 86.3093V89.5593V92.8093C69.7515 92.8093 68.4097 91.4674 68.4097 89.8122H71.6597ZM124.351 59.7026H127.601C127.601 54.8061 123.632 50.8366 118.735 50.8366V54.0866V57.3366C120.042 57.3366 121.101 58.3959 121.101 59.7026H124.351Z" fill="#053F33" mask="url(#path-3-outside-1_2106_3539)"/>
<path d="M94.4247 91.1115C93.4052 91.1115 92.5787 90.285 92.5787 89.2655C92.5787 88.246 93.4052 87.4195 94.4247 87.4195C95.4442 87.4195 96.2708 88.246 96.2708 89.2655C96.2708 90.285 95.4442 91.1115 94.4247 91.1115Z" fill="#053F33"/>
<path d="M117.553 91.1115C116.534 91.1115 115.707 90.285 115.707 89.2655C115.707 88.246 116.534 87.4195 117.553 87.4195C118.573 87.4195 119.399 88.246 119.399 89.2655C119.399 90.285 118.573 91.1115 117.553 91.1115Z" fill="#053F33"/>
<path d="M110.311 95.6867V82.7831C110.311 82.7231 110.341 82.6672 110.392 82.635V82.635C114.705 79.8904 120.216 79.8904 124.529 82.635L124.611 82.6867" stroke="#053F33" stroke-width="3.25" stroke-miterlimit="10" stroke-linecap="round"/>
<path d="M87.0543 83.5589V83.5589C91.0906 80.0609 97.0705 80.0149 101.16 83.4503L101.289 83.5589" stroke="#053F33" stroke-width="3.25" stroke-miterlimit="10" stroke-linecap="round"/>
<path d="M102.758 103.592C101.56 104.784 99.9376 105.454 98.247 105.454C96.5564 105.454 94.9346 104.784 93.7361 103.592" stroke="#053F33" stroke-width="3.25" stroke-miterlimit="10" stroke-linecap="round"/>
<path d="M89.4336 34.1157C101.738 32.2868 114.933 34.5851 122.113 38.3462L122.432 38.5171C129.067 42.1803 132.703 50.1417 133.616 57.6147C134.085 61.4504 133.859 65.3 132.88 68.5825C131.905 71.8484 130.128 74.7181 127.366 76.2964C127.111 76.4421 126.821 76.5161 126.527 76.5103C122.778 76.4361 113.598 75.7775 105.214 72.1812C99.2091 69.6053 93.4764 65.4451 90.5469 58.8413C90.0988 60.4117 89.496 62.0164 88.6865 63.5747C86.1215 68.5124 81.5233 72.9037 73.585 74.3276V80.7358C73.585 81.1668 73.4131 81.5805 73.1084 81.8853C72.8037 82.1897 72.3907 82.3608 71.96 82.3608C68.1813 82.3608 64.0235 80.5265 61.5957 76.0796C59.1981 71.6878 58.636 65.0245 61.2959 55.5942L61.4805 54.9644C65.4941 41.8469 77.2995 35.9194 89.4336 34.1157Z" fill="#053F33" stroke="#053F33" stroke-width="3.25" stroke-linejoin="round"/>
<path d="M43.1615 109.987C43.1615 109.987 22.2785 126.549 11.9617 146.387C0.55493 168.32 -2.77872 200.565 14.0331 208.137C46.0503 222.556 90.1602 187.987 90.1602 187.987C90.1602 187.987 108.133 193.837 111.61 178.237C111.61 178.237 128.428 177.333 127.86 175.637C127.293 173.94 107.616 166.14 94.0602 167.837C80.5043 169.533 57.0102 176.287 57.0102 176.287" stroke="#053F33" stroke-width="3.25" stroke-miterlimit="10" stroke-linecap="round"/>
<path d="M129.16 107.387C134.793 109.553 147.36 116.747 152.56 128.187" stroke="#053F33" stroke-width="3.25" stroke-linecap="round" stroke-linejoin="round"/>
<path d="M84.3101 212.687H271.51V262.087H84.3101V212.687Z" fill="#1F2847"/>
<path d="M75.2102 210.087C75.2102 208.651 76.3743 207.487 77.8102 207.487H268.91C270.346 207.487 271.51 208.651 271.51 210.087V217.887C271.51 219.323 270.346 220.487 268.91 220.487H77.8102C76.3743 220.487 75.2102 219.323 75.2102 217.887V210.087Z" fill="#1F2847"/>
<path d="M158.638 132.737C157.424 132.737 156.319 133.412 155.761 134.475L155.656 134.693L130.592 192.43L130.483 192.705C129.455 195.563 131.569 198.638 134.665 198.638C136.331 198.638 137.847 197.707 138.606 196.244L138.747 195.945L164.638 135.454L165.801 132.737H158.638Z" fill="#585CE5" stroke="#585CE5" stroke-width="3.9"/>
<path d="M233.708 202.978C233.396 204.106 232.371 204.887 231.201 204.887H77.8104C76.3745 204.887 75.2104 203.722 75.2104 202.287V195.787C75.2104 194.351 76.3745 193.187 77.8104 193.187H232.995C234.713 193.187 235.959 194.823 235.502 196.478L233.708 202.978Z" fill="#585CE5"/>
<path d="M161.76 132.737L161.254 133.921L132.976 200.212L131.817 202.927H231.114C232.823 202.927 234.377 201.971 235.154 200.47L235.299 200.162L262.132 137.262C263.046 135.118 261.473 132.737 259.143 132.737H161.76Z" fill="#1F2847" stroke="#1F2847" stroke-width="3.9"/>
<path d="M177.91 44.7201C177.91 42.997 179.307 41.6001 181.03 41.6001H282.43V101.66H177.91V44.7201Z" fill="#E1E8FE"/>
<path d="M202.333 67.9096C202.333 68.1769 202.656 68.3108 202.845 68.1218L203.94 67.0267C204.057 66.9095 204.247 66.9095 204.364 67.0267L205.826 68.4882C205.943 68.6053 205.943 68.7953 205.826 68.9124L204.583 70.155C204.394 70.344 204.528 70.6671 204.796 70.6671H206.7C206.866 70.6671 207 70.8014 207 70.9671V73.0331C207 73.1988 206.866 73.3331 206.7 73.3331H204.796C204.528 73.3331 204.394 73.6563 204.583 73.8453L205.826 75.0878C205.943 75.205 205.943 75.3949 205.826 75.5121L204.364 76.9735C204.247 77.0907 204.057 77.0907 203.94 76.9735L202.845 75.8785C202.656 75.6895 202.333 75.8233 202.333 76.0906V77.7001C202.333 77.8658 202.199 78.0001 202.033 78.0001H199.967C199.801 78.0001 199.667 77.8658 199.667 77.7001V75.7957C199.667 75.5284 199.344 75.3946 199.155 75.5835L197.765 76.9735C197.648 77.0907 197.458 77.0907 197.341 76.9735L195.879 75.5121C195.762 75.3949 195.762 75.205 195.879 75.0878L197.122 73.8453C197.311 73.6563 197.177 73.3331 196.91 73.3331H195.3C195.134 73.3331 195 73.1988 195 73.0331V70.9671C195 70.8014 195.134 70.6671 195.3 70.6671H196.91C197.177 70.6671 197.311 70.344 197.122 70.155L195.879 68.9124C195.762 68.7953 195.762 68.6053 195.879 68.4882L197.341 67.0267C197.458 66.9096 197.648 66.9095 197.765 67.0267L199.155 68.4167C199.344 68.6057 199.667 68.4718 199.667 68.2046V66.3001C199.667 66.1344 199.801 66.0001 199.967 66.0001H202.033C202.199 66.0001 202.333 66.1344 202.333 66.3001V67.9096Z" fill="#585CE5"/>
<path d="M222.333 67.9096C222.333 68.1769 222.656 68.3108 222.845 68.1218L223.94 67.0267C224.057 66.9095 224.247 66.9095 224.364 67.0267L225.826 68.4882C225.943 68.6053 225.943 68.7953 225.826 68.9124L224.583 70.155C224.394 70.344 224.528 70.6671 224.796 70.6671H226.7C226.866 70.6671 227 70.8014 227 70.9671V73.0331C227 73.1988 226.866 73.3331 226.7 73.3331H224.796C224.528 73.3331 224.394 73.6563 224.583 73.8453L225.826 75.0878C225.943 75.205 225.943 75.3949 225.826 75.5121L224.364 76.9735C224.247 77.0907 224.057 77.0907 223.94 76.9735L222.845 75.8785C222.656 75.6895 222.333 75.8233 222.333 76.0906V77.7001C222.333 77.8658 222.199 78.0001 222.033 78.0001H219.967C219.801 78.0001 219.667 77.8658 219.667 77.7001V75.7957C219.667 75.5284 219.344 75.3946 219.155 75.5835L217.765 76.9735C217.648 77.0907 217.458 77.0907 217.341 76.9735L215.879 75.5121C215.762 75.3949 215.762 75.205 215.879 75.0878L217.122 73.8453C217.311 73.6563 217.177 73.3331 216.91 73.3331H215.3C215.134 73.3331 215 73.1988 215 73.0331V70.9671C215 70.8014 215.134 70.6671 215.3 70.6671H216.91C217.177 70.6671 217.311 70.344 217.122 70.155L215.879 68.9124C215.762 68.7953 215.762 68.6053 215.879 68.4882L217.341 67.0267C217.458 66.9096 217.648 66.9095 217.765 67.0267L219.155 68.4167C219.344 68.6057 219.667 68.4718 219.667 68.2046V66.3001C219.667 66.1344 219.801 66.0001 219.967 66.0001H222.033C222.199 66.0001 222.333 66.1344 222.333 66.3001V67.9096Z" fill="#585CE5"/>
<path d="M242.333 67.9096C242.333 68.1769 242.656 68.3108 242.845 68.1218L243.94 67.0267C244.057 66.9095 244.247 66.9095 244.364 67.0267L245.826 68.4882C245.943 68.6053 245.943 68.7953 245.826 68.9124L244.583 70.155C244.394 70.344 244.528 70.6671 244.796 70.6671H246.7C246.866 70.6671 247 70.8014 247 70.9671V73.0331C247 73.1988 246.866 73.3331 246.7 73.3331H244.796C244.528 73.3331 244.394 73.6563 244.583 73.8453L245.826 75.0878C245.943 75.205 245.943 75.3949 245.826 75.5121L244.364 76.9735C244.247 77.0907 244.057 77.0907 243.94 76.9735L242.845 75.8785C242.656 75.6895 242.333 75.8233 242.333 76.0906V77.7001C242.333 77.8658 242.199 78.0001 242.033 78.0001H239.967C239.801 78.0001 239.667 77.8658 239.667 77.7001V75.7957C239.667 75.5284 239.344 75.3946 239.155 75.5835L237.765 76.9735C237.648 77.0907 237.458 77.0907 237.341 76.9735L235.879 75.5121C235.762 75.3949 235.762 75.205 235.879 75.0878L237.122 73.8453C237.311 73.6563 237.177 73.3331 236.91 73.3331H235.3C235.134 73.3331 235 73.1988 235 73.0331V70.9671C235 70.8014 235.134 70.6671 235.3 70.6671H236.91C237.177 70.6671 237.311 70.344 237.122 70.155L235.879 68.9124C235.762 68.7953 235.762 68.6053 235.879 68.4882L237.341 67.0267C237.458 66.9096 237.648 66.9095 237.765 67.0267L239.155 68.4167C239.344 68.6057 239.667 68.4718 239.667 68.2046V66.3001C239.667 66.1344 239.801 66.0001 239.967 66.0001H242.033C242.199 66.0001 242.333 66.1344 242.333 66.3001V67.9096Z" fill="#585CE5"/>
<path d="M262.333 67.9096C262.333 68.1769 262.656 68.3108 262.845 68.1218L263.94 67.0267C264.057 66.9095 264.247 66.9095 264.364 67.0267L265.826 68.4882C265.943 68.6053 265.943 68.7953 265.826 68.9124L264.583 70.155C264.394 70.344 264.528 70.6671 264.796 70.6671H266.7C266.866 70.6671 267 70.8014 267 70.9671V73.0331C267 73.1988 266.866 73.3331 266.7 73.3331H264.796C264.528 73.3331 264.394 73.6563 264.583 73.8453L265.826 75.0878C265.943 75.205 265.943 75.3949 265.826 75.5121L264.364 76.9735C264.247 77.0907 264.057 77.0907 263.94 76.9735L262.845 75.8785C262.656 75.6895 262.333 75.8233 262.333 76.0906V77.7001C262.333 77.8658 262.199 78.0001 262.033 78.0001H259.967C259.801 78.0001 259.667 77.8658 259.667 77.7001V75.7957C259.667 75.5284 259.344 75.3946 259.155 75.5835L257.765 76.9735C257.648 77.0907 257.458 77.0907 257.341 76.9735L255.879 75.5121C255.762 75.3949 255.762 75.205 255.879 75.0878L257.122 73.8453C257.311 73.6563 257.177 73.3331 256.91 73.3331H255.3C255.134 73.3331 255 73.1988 255 73.0331V70.9671C255 70.8014 255.134 70.6671 255.3 70.6671H256.91C257.177 70.6671 257.311 70.344 257.122 70.155L255.879 68.9124C255.762 68.7953 255.762 68.6053 255.879 68.4882L257.341 67.0267C257.458 66.9096 257.648 66.9095 257.765 67.0267L259.155 68.4167C259.344 68.6057 259.667 68.4718 259.667 68.2046V66.3001C259.667 66.1344 259.801 66.0001 259.967 66.0001H262.033C262.199 66.0001 262.333 66.1344 262.333 66.3001V67.9096Z" fill="#585CE5"/>
<mask id="path-23-outside-2_2106_3539" maskUnits="userSpaceOnUse" x="231.07" y="11.3001" width="57" height="45" fill="black">
<rect fill="white" x="231.07" y="11.3001" width="57" height="45"/>
<path d="M275.834 15.8022C277.837 13.7995 281.085 13.7994 283.088 15.8022L283.269 15.9936C285.088 18.0068 285.028 21.1157 283.088 23.0561L254.495 51.6479C254.489 51.6541 254.484 51.6612 254.478 51.6674C252.999 53.1459 250.843 53.5312 249.009 52.8266C248.946 52.8023 248.883 52.7764 248.821 52.7494C248.454 52.5914 248.102 52.3896 247.773 52.142C247.582 51.9983 247.398 51.8403 247.224 51.6664L247.223 51.6655L235.572 40.0141C233.57 38.0112 233.57 34.7641 235.572 32.7612L235.763 32.5795C237.776 30.7604 240.885 30.8208 242.825 32.7612L250.85 40.7856L275.834 15.8022ZM281.019 20.6967C280.976 20.7492 280.93 20.8001 280.881 20.8491L255.609 46.1205V46.1215L280.881 20.85C280.979 20.752 281.065 20.646 281.139 20.5346L281.019 20.6967ZM278.193 17.8705C278.14 17.9134 278.089 17.9602 278.04 18.0092L253.056 42.9916L253.057 42.9926L278.04 18.0092C278.138 17.9112 278.244 17.8249 278.356 17.7514L278.193 17.8705ZM240.466 34.8295C240.519 34.8725 240.57 34.9181 240.619 34.9672L240.467 34.8295C240.414 34.7866 240.36 34.7472 240.304 34.7104L240.466 34.8295Z"/>
</mask>
<path d="M275.834 15.8022C277.837 13.7995 281.085 13.7994 283.088 15.8022L283.269 15.9936C285.088 18.0068 285.028 21.1157 283.088 23.0561L254.495 51.6479C254.489 51.6541 254.484 51.6612 254.478 51.6674C252.999 53.1459 250.843 53.5312 249.009 52.8266C248.946 52.8023 248.883 52.7764 248.821 52.7494C248.454 52.5914 248.102 52.3896 247.773 52.142C247.582 51.9983 247.398 51.8403 247.224 51.6664L247.223 51.6655L235.572 40.0141C233.57 38.0112 233.57 34.7641 235.572 32.7612L235.763 32.5795C237.776 30.7604 240.885 30.8208 242.825 32.7612L250.85 40.7856L275.834 15.8022ZM281.019 20.6967C280.976 20.7492 280.93 20.8001 280.881 20.8491L255.609 46.1205V46.1215L280.881 20.85C280.979 20.752 281.065 20.646 281.139 20.5346L281.019 20.6967ZM278.193 17.8705C278.14 17.9134 278.089 17.9602 278.04 18.0092L253.056 42.9916L253.057 42.9926L278.04 18.0092C278.138 17.9112 278.244 17.8249 278.356 17.7514L278.193 17.8705ZM240.466 34.8295C240.519 34.8725 240.57 34.9181 240.619 34.9672L240.467 34.8295C240.414 34.7866 240.36 34.7472 240.304 34.7104L240.466 34.8295Z" fill="#C8FECA"/>
<path d="M275.834 15.8022L274.067 14.0343L274.066 14.0344L275.834 15.8022ZM283.088 15.8022L284.906 14.0862C284.89 14.0687 284.873 14.0514 284.856 14.0344L283.088 15.8022ZM283.269 15.9936L285.124 14.3175C285.112 14.3041 285.099 14.2908 285.087 14.2776L283.269 15.9936ZM283.088 23.0561L284.856 24.8239L284.856 24.8238L283.088 23.0561ZM254.495 51.6479L252.728 49.8801L252.719 49.889L254.495 51.6479ZM254.478 51.6674L256.245 53.4353L256.246 53.4352L254.478 51.6674ZM249.009 52.8266L249.906 50.493L249.905 50.4928L249.009 52.8266ZM248.821 52.7494L247.831 55.0454L247.832 55.0456L248.821 52.7494ZM247.773 52.142L249.276 50.1445L249.275 50.1441L247.773 52.142ZM247.224 51.6664L245.456 53.4342L245.456 53.4342L247.224 51.6664ZM247.223 51.6655L245.455 53.4332L245.455 53.4332L247.223 51.6655ZM235.572 40.0141L237.34 38.2464L237.34 38.2463L235.572 40.0141ZM235.572 32.7612L233.847 30.9521C233.833 30.9657 233.819 30.9795 233.805 30.9934L235.572 32.7612ZM235.763 32.5795L234.087 30.7246C234.07 30.7397 234.054 30.755 234.037 30.7705L235.763 32.5795ZM250.85 40.7856L249.082 42.5533C250.058 43.5296 251.641 43.5297 252.618 42.5534L250.85 40.7856ZM281.019 20.6967L282.956 22.2769C282.981 22.2468 283.004 22.2162 283.027 22.1851L281.019 20.6967ZM280.881 20.8491L282.649 22.6169L282.649 22.6167L280.881 20.8491ZM255.609 46.1205L253.841 44.3527C253.372 44.8216 253.109 45.4575 253.109 46.1205H255.609ZM255.609 46.1215H253.109C253.109 47.1327 253.718 48.0443 254.652 48.4312C255.586 48.8182 256.661 48.6043 257.376 47.8893L255.609 46.1215ZM280.881 20.85L282.649 22.6178L282.649 22.6178L280.881 20.85ZM281.139 20.5346L283.225 21.912C283.971 20.7817 283.682 19.2628 282.572 18.4863C281.463 17.7098 279.936 17.9581 279.13 19.0462L281.139 20.5346ZM278.193 17.8705L276.718 15.8518C276.682 15.878 276.647 15.9052 276.612 15.9333L278.193 17.8705ZM278.04 18.0092L279.808 19.777L278.04 18.0092ZM253.056 42.9916L251.288 41.2238C250.819 41.6926 250.556 42.3285 250.556 42.9916C250.556 43.6546 250.819 44.2905 251.288 44.7594L253.056 42.9916ZM253.057 42.9926L251.289 44.7604C252.265 45.7367 253.848 45.7367 254.825 44.7604L253.057 42.9926ZM278.356 17.7514L279.83 19.7701C280.927 18.9692 281.183 17.4398 280.409 16.3249C279.634 15.21 278.111 14.9171 276.978 15.6651L278.356 17.7514ZM240.466 34.8295L242.046 32.892C242.013 32.8655 241.98 32.8399 241.947 32.8151L240.466 34.8295ZM240.619 34.9672L238.943 36.8219C239.949 37.7313 241.497 37.6727 242.431 36.6898C243.366 35.707 243.346 34.1584 242.387 33.1995L240.619 34.9672ZM240.467 34.8295L242.143 32.9748C242.112 32.9466 242.08 32.9191 242.048 32.8925L240.467 34.8295ZM240.304 34.7104L241.682 32.6242C240.55 31.8768 239.028 32.1682 238.253 33.2809C237.477 34.3935 237.731 35.9217 238.823 36.7249L240.304 34.7104ZM275.834 15.8022L277.602 17.57C278.629 16.5434 280.294 16.5435 281.32 17.5699L283.088 15.8022L284.856 14.0344C281.877 11.0552 277.046 11.0555 274.067 14.0343L275.834 15.8022ZM283.088 15.8022L281.27 17.5182L281.451 17.7096L283.269 15.9936L285.087 14.2776L284.906 14.0862L283.088 15.8022ZM283.269 15.9936L281.414 17.6697C282.345 18.7006 282.314 20.295 281.32 21.2884L283.088 23.0561L284.856 24.8238C287.743 21.9364 287.83 17.313 285.124 14.3175L283.269 15.9936ZM283.088 23.0561L281.32 21.2883L252.728 49.8801L254.495 51.6479L256.263 53.4157L284.856 24.8239L283.088 23.0561ZM254.495 51.6479L252.719 49.889C252.696 49.9116 252.677 49.9321 252.661 49.9496C252.644 49.9671 252.631 49.9823 252.62 49.9943C252.61 50.0061 252.601 50.0159 252.596 50.022C252.593 50.0251 252.591 50.0276 252.59 50.0293C252.589 50.0301 252.588 50.0308 252.588 50.0313C252.588 50.0316 252.587 50.0321 252.587 50.0321C252.587 50.0325 252.588 50.0317 252.589 50.0306C252.59 50.0294 252.591 50.0273 252.594 50.0246C252.598 50.0194 252.606 50.0105 252.616 49.9995C252.626 49.9884 252.639 49.9741 252.654 49.9575C252.67 49.9409 252.688 49.9213 252.71 49.8997L254.478 51.6674L256.246 53.4352C256.291 53.3895 256.327 53.3505 256.349 53.3258C256.36 53.3131 256.369 53.3026 256.375 53.2957C256.381 53.2893 256.385 53.2838 256.386 53.2832C256.388 53.2811 256.385 53.2845 256.382 53.2883C256.378 53.2928 256.371 53.3009 256.362 53.3111C256.344 53.331 256.313 53.3655 256.272 53.4067L254.495 51.6479ZM254.478 51.6674L252.71 49.8995C251.956 50.6535 250.853 50.8568 249.906 50.493L249.009 52.8266L248.112 55.1602C250.833 56.2056 254.042 55.6382 256.245 53.4353L254.478 51.6674ZM249.009 52.8266L249.905 50.4928C249.881 50.4835 249.85 50.471 249.809 50.4533L248.821 52.7494L247.832 55.0456C247.916 55.0817 248.01 55.1211 248.113 55.1604L249.009 52.8266ZM248.821 52.7494L249.81 50.4535C249.62 50.3717 249.441 50.2688 249.276 50.1445L247.773 52.142L246.269 54.1396C246.762 54.5105 247.288 54.8112 247.831 55.0454L248.821 52.7494ZM247.773 52.142L249.275 50.1441C249.172 50.0664 249.078 49.9847 248.992 49.8986L247.224 51.6664L245.456 53.4342C245.718 53.696 245.991 53.9302 246.27 54.1399L247.773 52.142ZM247.224 51.6664L248.992 49.8987L248.991 49.8977L247.223 51.6655L245.455 53.4332L245.456 53.4342L247.224 51.6664ZM247.223 51.6655L248.991 49.8978L237.34 38.2464L235.572 40.0141L233.805 41.7818L245.455 53.4332L247.223 51.6655ZM235.572 40.0141L237.34 38.2463C236.314 37.2198 236.314 35.5555 237.34 34.5289L235.572 32.7612L233.805 30.9934C230.826 33.9726 230.826 38.8027 233.805 41.7819L235.572 40.0141ZM235.572 32.7612L237.298 34.5702L237.488 34.3885L235.763 32.5795L234.037 30.7705L233.847 30.9521L235.572 32.7612ZM235.763 32.5795L237.439 34.4345C238.469 33.5034 240.064 33.5351 241.058 34.5289L242.825 32.7612L244.593 30.9934C241.706 28.1066 237.083 28.0174 234.087 30.7246L235.763 32.5795ZM242.825 32.7612L241.058 34.5289L249.082 42.5533L250.85 40.7856L252.618 39.0178L244.593 30.9934L242.825 32.7612ZM250.85 40.7856L252.618 42.5534L277.602 17.57L275.834 15.8022L274.066 14.0344L249.082 39.0178L250.85 40.7856ZM281.019 20.6967L279.081 19.1165C279.092 19.1038 279.103 19.0921 279.113 19.0814L280.881 20.8491L282.649 22.6167C282.758 22.5081 282.86 22.3947 282.956 22.2769L281.019 20.6967ZM280.881 20.8491L279.113 19.0813L253.841 44.3527L255.609 46.1205L257.376 47.8883L282.649 22.6169L280.881 20.8491ZM255.609 46.1205H253.109V46.1215H255.609H258.109V46.1205H255.609ZM255.609 46.1215L257.376 47.8893L282.649 22.6178L280.881 20.85L279.113 19.0822L253.841 44.3537L255.609 46.1215ZM280.881 20.85L282.649 22.6178C282.866 22.4011 283.059 22.1645 283.225 21.912L281.139 20.5346L279.053 19.1572C279.072 19.1276 279.093 19.1028 279.113 19.0823L280.881 20.85ZM281.139 20.5346L279.13 19.0462L279.01 19.2084L281.019 20.6967L283.027 22.1851L283.148 22.023L281.139 20.5346ZM278.193 17.8705L276.612 15.9333C276.482 16.0398 276.368 16.1457 276.272 16.2414L278.04 18.0092L279.808 19.777C279.81 19.7747 279.798 19.787 279.773 19.8078L278.193 17.8705ZM278.04 18.0092L276.273 16.2414L251.288 41.2238L253.056 42.9916L254.824 44.7595L279.808 19.777L278.04 18.0092ZM253.056 42.9916L251.288 44.7594L251.289 44.7604L253.057 42.9926L254.825 41.2248L254.824 41.2239L253.056 42.9916ZM253.057 42.9926L254.825 44.7604L279.808 19.777L278.04 18.0092L276.272 16.2414L251.289 41.2248L253.057 42.9926ZM278.04 18.0092L279.808 19.777C279.787 19.7976 279.763 19.8182 279.733 19.8377L278.356 17.7514L276.978 15.6651C276.726 15.8317 276.489 16.0247 276.272 16.2414L278.04 18.0092ZM278.356 17.7514L276.881 15.7327L276.718 15.8518L278.193 17.8705L279.667 19.8892L279.83 19.7701L278.356 17.7514ZM240.466 34.8295L238.886 36.767C238.886 36.7669 238.883 36.7642 238.877 36.759C238.871 36.7538 238.862 36.7458 238.852 36.735L240.619 34.9672L242.387 33.1995C242.268 33.08 242.151 32.9779 242.046 32.892L240.466 34.8295ZM240.619 34.9672L242.296 33.1125L242.143 32.9748L240.467 34.8295L238.791 36.6842L238.943 36.8219L240.619 34.9672ZM240.467 34.8295L242.048 32.8925C241.918 32.7868 241.793 32.698 241.682 32.6242L240.304 34.7104L238.926 36.7966C238.926 36.7964 238.911 36.7864 238.887 36.7665L240.467 34.8295ZM240.304 34.7104L238.823 36.7249L238.986 36.844L240.466 34.8295L241.947 32.8151L241.784 32.6959L240.304 34.7104Z" fill="#585CE5" mask="url(#path-23-outside-2_2106_3539)"/>
<path d="M282.429 41.5004L282.429 102.44" stroke="#585CE5" stroke-width="3.12"/>
<path d="M193.12 100.88L193.12 99.3202L192.406 99.3202L191.939 99.8606L193.12 100.88ZM179.86 100.88C179.86 100.019 179.161 99.3202 178.3 99.3202C177.438 99.3202 176.74 100.019 176.74 100.88L179.86 100.88ZM179.67 116.454L178.489 115.434L179.67 116.454ZM283.99 100.88V99.3202L193.12 99.3202L193.12 100.88L193.12 102.44L283.99 102.44V100.88ZM193.12 100.88L191.939 99.8606L178.489 115.434L179.67 116.454L180.851 117.473L194.3 101.9L193.12 100.88ZM178.3 115.944L179.86 115.944L179.86 100.88L178.3 100.88L176.74 100.88L176.74 115.944L178.3 115.944ZM179.67 116.454L178.489 115.434C178.962 114.887 179.86 115.221 179.86 115.944L178.3 115.944L176.74 115.944C176.74 118.112 179.434 119.114 180.851 117.473L179.67 116.454Z" fill="#585CE5"/>
<path d="M168.811 0.00012207C174.554 0.000227728 179.21 4.65682 179.21 10.4005V13.6505H180.511C183.382 13.6506 185.711 15.978 185.711 18.8497V42.2501C185.711 45.1219 183.383 47.4503 180.511 47.4503H157.11C154.239 47.4499 151.91 45.1217 151.91 42.2501V18.8497C151.91 15.9783 154.239 13.6509 157.11 13.6505H158.41V10.4005C158.41 4.657 163.067 0.000534628 168.811 0.00012207ZM168.811 24.7003C166.326 24.7005 164.312 26.7144 164.312 29.1993C164.312 30.4712 164.84 31.6187 165.688 32.4366C166.068 32.8028 166.307 33.3175 166.21 33.8361L165.292 38.7345C165.142 39.5345 165.755 40.2745 166.569 40.2745H171.052C171.866 40.2743 172.479 39.5345 172.329 38.7345L171.41 33.8361C171.313 33.3173 171.551 32.8027 171.932 32.4366C172.781 31.6188 173.31 30.4716 173.311 29.1993C173.311 26.7144 171.295 24.7004 168.811 24.7003ZM168.811 3.90051C165.221 3.90093 162.311 6.81092 162.311 10.4005V13.6505H175.311V10.4005C175.311 6.81073 172.4 3.90062 168.811 3.90051Z" fill="#585CE5"/>
<path d="M47.9102 189.937V256.887" stroke="#C8FECA" stroke-width="3.25" stroke-linecap="round" stroke-linejoin="round"/>
<path d="M23.2102 211.387V256.887" stroke="#C8FECA" stroke-width="3.25" stroke-linecap="round" stroke-linejoin="round"/>
<path d="M206.462 182.878C212.222 178.194 217.677 179.77 219.572 186.453C221.476 193.146 220.249 199.997 218.838 206.827C216.871 216.322 213.362 225.44 209.245 235.369C213.575 232.489 217.218 230.143 220.771 227.669C223.843 225.528 227.291 224.488 230.719 223.421C232.542 222.854 234.393 222.867 236.154 223.528C239.516 224.789 240.526 227.042 239.176 230.599C237.619 234.702 234.9 238.099 231.805 241.212C229.835 243.193 227.781 245.099 225.662 246.914C223.681 248.607 221.558 250.134 219.143 252.016C220.513 252.752 221.78 252.436 222.964 252.385C230.197 252.068 237.442 251.656 244.622 252.079C252.528 252.545 260.091 254.071 266.865 257.929C268.143 258.659 269.413 259.351 270.341 260.497C270.999 261.309 271.389 262.087 271.509 262.858H8.03637C7.2396 262.324 6.46567 261.757 5.78344 261.115C0.766181 256.404 1.78862 252.021 8.49243 249.863C12.3852 248.609 16.4448 248.276 20.5998 248.544C26.8378 248.946 32.8996 250.255 39.0198 251.262C40.3848 251.644 40.7329 251.088 40.428 249.938C35.5017 242.301 30.1099 234.921 26.0081 226.837C23.3522 221.605 20.9099 216.324 19.4426 210.67C18.8911 208.543 18.6931 206.425 18.8967 204.293C19.4268 198.774 23.9251 196.249 29.553 198.287C32.7653 199.448 35.3304 201.495 37.8147 203.652C45.0113 209.901 50.602 217.37 56.4973 224.61C58.4893 227.06 60.5403 229.471 63.0676 232.501C63.7745 230.136 63.3777 228.726 63.217 227.343C62.3818 220.028 63.2605 212.842 65.3381 205.795C66.4841 201.917 68.1172 197.538 73.0217 197.221C77.9371 196.904 80.0472 201.074 81.8411 204.749C85.4284 212.094 86.1036 220.019 87.0461 227.879C87.1586 228.821 86.8906 229.838 87.9241 231.038C89.675 229.189 91.3401 227.358 93.0911 225.603C95.7521 222.93 98.4889 220.326 101.9 218.446C102.97 217.856 104.036 217.211 105.198 216.834C110.606 215.074 113.937 217.236 113.958 222.597C113.974 226.272 112.829 229.768 111.426 233.165C110.291 235.913 108.968 238.591 107.532 241.73C109.342 241.73 110.424 240.912 111.586 240.366C117.118 237.786 122.717 235.378 128.472 233.344C127.513 231.802 126.622 230.208 125.794 228.567C124.018 225.042 122.255 220.833 125.543 217.313C128.839 213.785 133.134 215.331 136.871 216.736C143.615 219.271 148.982 223.734 154.323 228.22C155.29 228.248 156.257 228.3 157.224 228.37C157.772 228.41 158.296 228.476 158.795 228.562C158.794 227.029 158.799 225.512 158.846 223.994C158.957 220.308 159.169 216.62 160.346 212.993C160.716 211.855 161.045 210.68 161.622 209.632C164.304 204.749 168.126 204.048 171.727 207.842C174.196 210.442 175.717 213.695 176.988 217.051C178.015 219.765 178.862 222.556 179.938 225.75C181.229 224.534 181.454 223.227 181.918 222.059C186.078 211.67 190.806 201.557 197.414 192.253C199.985 188.637 203.094 185.616 206.462 182.878Z" fill="#C8FECA"/>
<rect x="29.71" y="176.8" width="18.2" height="18.2" rx="5.2" fill="#585CE5"/>
<rect x="47.9099" y="176.8" width="18.2" height="18.2" rx="5.2" fill="#585CE5"/>
<rect x="29.71" y="158.6" width="18.2" height="18.2" rx="5.2" fill="#585CE5"/>
<rect x="47.9099" y="158.6" width="18.2" height="18.2" rx="5.2" fill="#585CE5"/>
<rect x="47.9106" y="227.5" width="18.2" height="18.2" rx="5.2" fill="#585CE5"/>
<rect x="66.1106" y="227.5" width="18.2" height="18.2" rx="5.2" fill="#585CE5"/>
<rect x="47.9106" y="209.3" width="18.2" height="18.2" rx="5.2" fill="#585CE5"/>
<rect x="66.1106" y="209.3" width="18.2" height="18.2" rx="5.2" fill="#585CE5"/>
<rect x="5.01025" y="210.6" width="18.2" height="18.2" rx="5.2" fill="#585CE5"/>
<rect x="23.2102" y="210.6" width="18.2" height="18.2" rx="5.2" fill="#585CE5"/>
<rect x="5.01025" y="192.4" width="18.2" height="18.2" rx="5.2" fill="#585CE5"/>
<rect x="23.2102" y="192.4" width="18.2" height="18.2" rx="5.2" fill="#585CE5"/>
</svg>
