<svg width="17" height="16" viewBox="0 0 17 16" fill="none" xmlns="http://www.w3.org/2000/svg">
<path d="M16.2188 1.05664L1.27539 16L0.21875 14.9434L2.56738 12.5938C1.25906 11.4079 0.332422 9.80871 0 8C0.702342 4.17448 4.05523 1.27539 8.08398 1.27539C9.73504 1.27545 11.2718 1.76335 12.5596 2.60156L15.1621 0L16.2188 1.05664ZM14.459 4.31055C15.3116 5.35783 15.9129 6.61775 16.167 8C15.4646 11.8254 12.1126 14.7245 8.08398 14.7246C6.89729 14.7246 5.76981 14.4712 4.75098 14.0186L5.90332 12.8652C6.60022 13.1041 7.3368 13.2303 8.08398 13.2305C9.60767 13.2301 11.0861 12.7117 12.2773 11.7617C13.4685 10.8116 14.3023 9.48546 14.6416 8C14.4209 7.03819 13.9915 6.144 13.3936 5.375L14.459 4.31055ZM8.08398 2.77637C6.56117 2.77637 5.08277 3.29249 3.8916 4.24121C2.70041 5.1901 1.86592 6.51562 1.52539 8C1.83877 9.37213 2.57488 10.6076 3.62402 11.5371L5.29004 9.87109C4.92205 9.32156 4.72168 8.6711 4.72168 8C4.72168 7.10842 5.07571 6.25356 5.70605 5.62305C6.3366 4.9925 7.19225 4.6377 8.08398 4.6377C8.75488 4.63776 9.4047 4.83907 9.9541 5.20703L11.4697 3.69141C10.4466 3.09559 9.27944 2.77642 8.08398 2.77637ZM11.3867 7.38184C11.4246 7.58432 11.4463 7.79109 11.4463 8C11.4463 8.89165 11.0914 9.74642 10.4609 10.377C9.83047 11.0074 8.9756 11.3622 8.08398 11.3623C7.87494 11.3623 7.66745 11.3416 7.46484 11.3037L11.3867 7.38184ZM8.08398 6.13184C7.58858 6.13184 7.113 6.32938 6.7627 6.67969C6.41259 7.02996 6.21582 7.50475 6.21582 8C6.21582 8.27033 6.27567 8.5341 6.38574 8.77539L8.8584 6.30273C8.61728 6.19267 8.35409 6.13188 8.08398 6.13184Z" fill="currentColor"/>
</svg>
