<svg width="24" height="24" viewBox="0 0 24 24" fill="none" xmlns="http://www.w3.org/2000/svg">
<path d="M12 4C16.7346 4 20.6737 7.44889 21.5 12C20.6746 16.5511 16.7346 20 12 20C7.26537 20 3.32628 16.5511 2.5 12C3.3254 7.44889 7.26537 4 12 4ZM12 18.2222C13.7908 18.2218 15.5285 17.6061 16.9286 16.4757C18.3286 15.3453 19.3082 13.7674 19.707 12C19.3067 10.234 18.3265 8.65778 16.9266 7.52891C15.5267 6.40004 13.7898 5.78536 12 5.78536C10.2102 5.78536 8.47334 6.40004 7.0734 7.52891C5.67345 8.65778 4.69325 10.234 4.29305 12C4.69178 13.7674 5.67136 15.3453 7.07144 16.4757C8.47152 17.6061 10.2092 18.2218 12 18.2222ZM12 16C10.952 16 9.94698 15.5786 9.20595 14.8284C8.46492 14.0783 8.04862 13.0609 8.04862 12C8.04862 10.9391 8.46492 9.92172 9.20595 9.17157C9.94698 8.42143 10.952 8 12 8C13.048 8 14.053 8.42143 14.794 9.17157C15.5351 9.92172 15.9514 10.9391 15.9514 12C15.9514 13.0609 15.5351 14.0783 14.794 14.8284C14.053 15.5786 13.048 16 12 16ZM12 14.2222C12.5822 14.2222 13.1406 13.9881 13.5522 13.5713C13.9639 13.1546 14.1952 12.5894 14.1952 12C14.1952 11.4106 13.9639 10.8454 13.5522 10.4287C13.1406 10.0119 12.5822 9.77778 12 9.77778C11.4178 9.77778 10.8594 10.0119 10.4478 10.4287C10.0361 10.8454 9.80479 11.4106 9.80479 12C9.80479 12.5894 10.0361 13.1546 10.4478 13.5713C10.8594 13.9881 11.4178 14.2222 12 14.2222Z" fill="currentColor"/>
</svg>
