<svg width="42" height="42" viewBox="0 0 42 42" fill="none" xmlns="http://www.w3.org/2000/svg">
<path d="M18.0391 1.00696C18.2857 0.98764 18.6156 0.999772 18.9307 1.15833L18.9932 1.19251L19.0605 1.23157C19.3908 1.42859 19.6852 1.6724 19.9355 2.10364C20.1714 2.50998 20.3509 3.0556 20.5488 3.80774C21.0019 5.52933 20.6216 6.61255 20.3213 8.03919C20.0271 9.43664 19.9434 12.1915 20.0225 15.2765C20.0636 16.8814 19.9191 17.8108 19.7695 18.5265C19.6201 19.2415 19.5157 19.567 19.5479 20.1466C19.5833 20.7838 19.7449 21.5439 19.917 22.3624C20.0792 23.1341 20.2597 23.9928 20.2598 24.6896C20.2598 25.4087 20.124 26.0965 19.999 26.7599C19.8792 27.3959 19.7588 28.0523 19.7139 28.8292L19.7061 28.9865C19.6797 29.5926 19.7455 30.1013 19.8379 30.4913C19.9121 30.8047 20.0237 31.1038 20.1533 31.4825C20.2757 31.8401 20.4098 32.2575 20.4697 32.7091L20.4893 32.8683C20.5873 33.6805 20.6476 34.7792 20.5742 36.0997C20.4797 37.8012 19.8148 39.1503 19.1846 40.006C18.8328 40.4834 18.3449 40.7039 17.9023 40.8077C17.528 40.8955 17.1387 40.9112 16.8174 40.9132H16.6836C16.6677 40.9132 16.6509 40.9145 16.5889 40.9269C16.5389 40.9369 16.4327 40.9605 16.3066 40.9747L16.251 40.9796C14.7292 41.1083 13.4482 40.6095 12.498 40.0607C12.0221 39.7857 11.6202 39.4924 11.3066 39.2521C10.9998 39.0169 10.8378 38.8827 10.7285 38.8068L10.6846 38.7775C10.314 38.5458 8.57949 37.4481 7.14453 36.4542L6.8623 36.257C5.97636 35.634 5.38784 34.7456 4.94238 33.9161C4.50945 33.11 3.95982 32.2922 3.51172 31.8654L3.46875 31.8253C2.77847 31.1978 2.39079 30.2825 2.1709 29.4572C1.9466 28.6152 1.86819 27.7586 1.86816 27.1368C1.86804 27.1342 1.86706 27.122 1.86426 27.0997C1.86075 27.072 1.85495 27.0352 1.8457 26.9884C1.8269 26.8933 1.79806 26.7744 1.75977 26.6329C1.68263 26.3481 1.57933 26.0141 1.46875 25.6525C1.36072 25.2992 1.24689 24.9211 1.16016 24.5792C1.07819 24.2561 1.00009 23.8907 1 23.5851C1.00001 23.253 1.06781 22.8571 1.14746 22.4904C1.22989 22.1109 1.33786 21.7061 1.44043 21.339L1.48438 21.174C1.69936 20.3447 1.81012 19.4564 1.91895 18.5363C1.965 18.1469 2.01252 17.7489 2.04883 17.4083C2.10366 16.8941 2.18219 16.2721 2.43652 15.6779L2.49023 15.5538C2.61934 15.2606 2.77072 14.9432 2.92676 14.6447L3.01367 14.4835C3.21956 14.1085 3.45075 13.7449 3.65625 13.4142C3.89932 13.023 4.1144 12.6662 4.2793 12.3068L4.40625 12.0226C4.53266 11.7359 4.65408 11.4418 4.75684 11.1593L4.7793 11.1017C4.89545 10.8079 5.10968 10.4308 5.33398 10.0646C5.58506 9.65466 5.8888 9.19356 6.18848 8.75403C6.78336 7.88152 7.38922 7.05268 7.56641 6.83118C7.70165 6.66212 8.29641 5.98773 9.04199 5.24915C9.77856 4.5195 10.7318 3.65693 11.5762 3.16809C12.2713 2.76566 12.575 2.49498 12.9346 2.2218C13.3374 1.9158 13.736 1.67237 14.5039 1.4386L14.6162 1.40637C15.1708 1.25591 15.6572 1.25923 16.0342 1.30091C16.2319 1.32279 16.4005 1.35507 16.5176 1.37805C16.5529 1.385 16.5804 1.39087 16.6006 1.39466C16.6307 1.38511 16.6695 1.37185 16.7188 1.35462C16.8554 1.30683 17.0704 1.22766 17.2852 1.16223C17.5014 1.09637 17.7673 1.02829 18.0391 1.00696ZM24.5586 1.00696C24.8304 1.02829 25.0962 1.09637 25.3125 1.16223C25.5273 1.22766 25.7423 1.30683 25.8789 1.35462C25.9282 1.37184 25.967 1.38511 25.9971 1.39466C26.0173 1.39087 26.0447 1.38499 26.0801 1.37805C26.1971 1.35507 26.3658 1.32278 26.5635 1.30091C26.9404 1.25924 27.4269 1.25592 27.9814 1.40637L28.0928 1.4386C28.861 1.67241 29.2602 1.91574 29.6631 2.2218C30.0227 2.49497 30.3264 2.76567 31.0215 3.16809C31.8658 3.65694 32.8191 4.51952 33.5557 5.24915C34.3012 5.98771 34.896 6.66213 35.0312 6.83118C35.2085 7.05273 35.8143 7.88157 36.4092 8.75403C36.7088 9.19355 37.0126 9.65467 37.2637 10.0646C37.488 10.4308 37.7022 10.8079 37.8184 11.1017L37.8408 11.1593C37.9435 11.4417 38.0641 11.7361 38.1904 12.0226L38.3184 12.3068C38.4833 12.6662 38.6983 13.023 38.9414 13.4142C39.1469 13.7449 39.3781 14.1086 39.584 14.4835L39.6709 14.6447C39.8269 14.9432 39.9783 15.2606 40.1074 15.5538L40.1611 15.6779C40.4155 16.2721 40.494 16.8941 40.5488 17.4083C40.5851 17.7489 40.6327 18.1469 40.6787 18.5363C40.7875 19.4564 40.8983 20.3447 41.1133 21.174L41.1572 21.339C41.2598 21.7061 41.3678 22.1109 41.4502 22.4904C41.5298 22.8571 41.5976 23.253 41.5977 23.5851C41.5976 23.8907 41.5195 24.2561 41.4375 24.5792C41.3508 24.9211 41.2369 25.2991 41.1289 25.6525C41.0183 26.0141 40.915 26.3481 40.8379 26.6329C40.7996 26.7744 40.7708 26.8933 40.752 26.9884C40.7427 27.0352 40.7369 27.072 40.7334 27.0997C40.7306 27.122 40.7296 27.1342 40.7295 27.1368C40.7295 27.7586 40.6511 28.6152 40.4268 29.4572C40.2069 30.2825 39.8192 31.1978 39.1289 31.8253L39.0859 31.8654C38.6378 32.2922 38.0882 33.11 37.6553 33.9161C37.2098 34.7456 36.6213 35.634 35.7354 36.257L35.4531 36.4542C34.0182 37.448 32.2837 38.5458 31.9131 38.7775L31.8691 38.8068C31.7598 38.8827 31.5978 39.0169 31.291 39.2521C30.9775 39.4924 30.5755 39.7857 30.0996 40.0607C29.1495 40.6095 27.8685 41.1083 26.3467 40.9796L26.291 40.9747C26.165 40.9605 26.0588 40.9369 26.0088 40.9269C25.9469 40.9145 25.9299 40.9132 25.9141 40.9132H25.7803C25.459 40.9112 25.0696 40.8955 24.6953 40.8077C24.2528 40.7039 23.7648 40.4834 23.4131 40.006C22.7828 39.1503 22.118 37.8012 22.0234 36.0997C21.9501 34.7792 22.0104 33.6805 22.1084 32.8683L22.1279 32.7091C22.1879 32.2575 22.322 31.8401 22.4443 31.4825C22.5739 31.1038 22.6855 30.8047 22.7598 30.4913C22.8521 30.1013 22.9179 29.5926 22.8916 28.9865L22.8838 28.8292C22.8389 28.0523 22.7185 27.3959 22.5986 26.7599C22.4737 26.0965 22.3379 25.4087 22.3379 24.6896C22.3379 23.9928 22.5184 23.1341 22.6807 22.3624C22.8527 21.5439 23.0144 20.7838 23.0498 20.1466C23.082 19.567 22.9775 19.2415 22.8281 18.5265C22.6786 17.8108 22.5341 16.8814 22.5752 15.2765C22.6543 12.1915 22.5705 9.43665 22.2764 8.03919C21.976 6.61254 21.5958 5.52934 22.0488 3.80774C22.2468 3.05559 22.4262 2.50998 22.6621 2.10364C22.9125 1.67239 23.2068 1.42859 23.5371 1.23157L23.6045 1.19251L23.667 1.15833C23.982 0.999786 24.3119 0.98764 24.5586 1.00696ZM18.1621 2.58118C18.0569 2.58946 17.9172 2.61961 17.7451 2.672C17.5714 2.72492 17.4138 2.78415 17.2402 2.84485C17.1607 2.87266 17.0703 2.90305 16.9854 2.92688C16.9169 2.94607 16.7797 2.9825 16.6289 2.98255C16.472 2.98255 16.2834 2.94151 16.2139 2.92786C16.1017 2.90583 15.9888 2.88436 15.8613 2.87024C15.6279 2.8444 15.3474 2.84309 15.0283 2.92981L14.9639 2.94837C14.3904 3.12293 14.1576 3.2751 13.8896 3.47864C13.5785 3.71501 13.1715 4.06864 12.3672 4.5343C11.7119 4.91367 10.8809 5.64949 10.1533 6.37024C9.43462 7.0822 8.8841 7.71091 8.79883 7.81751C8.65985 7.9913 8.0819 8.78019 7.49316 9.64368C7.20096 10.0722 6.91299 10.5095 6.68066 10.8888C6.46718 11.2374 6.32756 11.494 6.26367 11.6417L6.24121 11.6984C6.10393 12.0759 5.94184 12.4601 5.78223 12.8146L5.71387 12.964C5.50334 13.423 5.24163 13.8552 4.99805 14.2472C4.74624 14.6524 4.51756 15.01 4.32617 15.3761C4.16661 15.6814 4.01135 16.0101 3.8877 16.299C3.73577 16.6539 3.67379 17.0638 3.61914 17.5763C3.58158 17.9285 3.53158 18.3392 3.48633 18.7218C3.37927 19.6269 3.25929 20.6199 3.01172 21.5743L2.96094 21.7648C2.86086 22.1229 2.7629 22.4917 2.69043 22.8253C2.6152 23.1717 2.57911 23.4304 2.5791 23.5851C2.57922 23.6761 2.60984 23.8739 2.69043 24.1915C2.76648 24.4913 2.86952 24.8341 2.97852 25.1906C3.08492 25.5385 3.19856 25.9046 3.28418 26.2208C3.3622 26.509 3.44725 26.8585 3.44727 27.1368C3.44729 27.6452 3.51296 28.3627 3.69629 29.0509C3.8841 29.7558 4.16774 30.3278 4.53027 30.6574L4.59277 30.715C5.23269 31.3223 5.8789 32.3235 6.33301 33.1691C6.73831 33.9238 7.18454 34.5546 7.76953 34.9659L8.0459 35.1583C9.44833 36.1295 11.1571 37.2118 11.5215 37.4396L11.5996 37.4904C11.7908 37.6217 12.0482 37.831 12.2676 37.9991C12.5557 38.22 12.8964 38.4672 13.2881 38.6935C14.073 39.1468 15.0279 39.4986 16.1182 39.4064L16.1465 39.4034C16.1746 39.3995 16.2069 39.3927 16.2803 39.3781C16.373 39.3596 16.5121 39.3339 16.6865 39.3341H16.8135C17.103 39.3318 17.3419 39.3185 17.542 39.2716C17.756 39.2214 17.8549 39.1483 17.9131 39.0695C18.3986 38.4104 18.9236 37.3501 18.998 36.0128C19.0662 34.7861 19.0099 33.7796 18.9229 33.0577L18.9043 32.9171C18.8664 32.6318 18.778 32.3405 18.6592 31.9933C18.5476 31.6673 18.3989 31.2646 18.3018 30.8546C18.1776 30.3301 18.096 29.6762 18.1289 28.9181L18.1387 28.7384C18.1901 27.85 18.3276 27.1082 18.4482 26.4679C18.5798 25.7697 18.6807 25.2334 18.6807 24.6896C18.6806 24.192 18.5452 23.5114 18.3721 22.6876C18.2087 21.9106 18.0152 21.0179 17.9717 20.2345C17.925 19.3935 18.0968 18.8102 18.2236 18.2032C18.3503 17.5969 18.4821 16.7894 18.4443 15.3165C18.3656 12.245 18.4391 9.31598 18.7764 7.71399C19.1074 6.14149 19.3586 5.4877 19.0225 4.21009C18.8259 3.46305 18.6895 3.1009 18.5703 2.89563C18.4868 2.75187 18.4124 2.68228 18.2383 2.5802C18.2248 2.57917 18.2003 2.57819 18.1621 2.58118ZM24.3594 2.5802C24.1852 2.68229 24.1109 2.75187 24.0273 2.89563C23.9082 3.10089 23.7718 3.46302 23.5752 4.21009C23.239 5.48771 23.4902 6.14148 23.8213 7.71399C24.1585 9.31599 24.2321 12.245 24.1533 15.3165C24.1156 16.7894 24.2473 17.5969 24.374 18.2032C24.5008 18.8102 24.6727 19.3935 24.626 20.2345C24.5824 21.0179 24.3889 21.9106 24.2256 22.6876C24.0524 23.5114 23.917 24.192 23.917 24.6896C23.917 25.2334 24.0179 25.7697 24.1494 26.4679C24.27 27.1082 24.4076 27.85 24.459 28.7384L24.4688 28.9181C24.5017 29.6762 24.4201 30.3301 24.2959 30.8546C24.1988 31.2646 24.0501 31.6673 23.9385 31.9933C23.8197 32.3405 23.7312 32.6318 23.6934 32.9171L23.6748 33.0577C23.5877 33.7796 23.5315 34.7861 23.5996 36.0128C23.674 37.3501 24.1991 38.4104 24.6846 39.0695C24.7427 39.1483 24.8417 39.2214 25.0557 39.2716C25.2557 39.3185 25.4947 39.3318 25.7842 39.3341H25.9111C26.0855 39.3339 26.2247 39.3596 26.3174 39.3781C26.3907 39.3927 26.423 39.3995 26.4512 39.4034L26.4795 39.4064C27.5698 39.4986 28.5247 39.1468 29.3096 38.6935C29.7012 38.4672 30.0419 38.22 30.3301 37.9991C30.5495 37.831 30.8068 37.6217 30.998 37.4904L31.0762 37.4396C31.4407 37.2118 33.1494 36.1295 34.5518 35.1583L34.8281 34.9659C35.4131 34.5546 35.8584 33.9237 36.2637 33.1691C36.7178 32.3235 37.3649 31.3223 38.0049 30.715L38.0674 30.6574C38.4299 30.3278 38.7136 29.7558 38.9014 29.0509C39.0847 28.3627 39.1504 27.6452 39.1504 27.1368C39.1504 26.8585 39.2355 26.509 39.3135 26.2208C39.3991 25.9046 39.5127 25.5385 39.6191 25.1906C39.7281 24.8341 39.8312 24.4913 39.9072 24.1915C39.9878 23.8739 40.0184 23.6761 40.0186 23.5851C40.0185 23.4304 39.9825 23.1717 39.9072 22.8253C39.8348 22.4917 39.7368 22.1229 39.6367 21.7648L39.5859 21.5743C39.3384 20.6199 39.2184 19.6269 39.1113 18.7218C39.0661 18.3392 39.0161 17.9285 38.9785 17.5763C38.9239 17.0638 38.8619 16.6539 38.71 16.299C38.5863 16.0101 38.431 15.6814 38.2715 15.3761C38.0801 15.01 37.8514 14.6524 37.5996 14.2472C37.356 13.8552 37.0943 13.423 36.8838 12.964L36.8154 12.8146C36.6558 12.4601 36.4937 12.0759 36.3564 11.6984L36.334 11.6417C36.2701 11.494 36.1305 11.2373 35.917 10.8888C35.6847 10.5095 35.3967 10.0722 35.1045 9.64368C34.5158 8.78025 33.9379 7.99137 33.7988 7.81751C33.7136 7.71091 33.163 7.08219 32.4443 6.37024C31.7167 5.6495 30.8857 4.91368 30.2305 4.5343C29.4262 4.06866 29.0192 3.71501 28.708 3.47864C28.4401 3.2751 28.2073 3.12292 27.6338 2.94837L27.5693 2.92981C27.2503 2.84309 26.9698 2.84441 26.7363 2.87024C26.6089 2.88436 26.496 2.90583 26.3838 2.92786C26.3143 2.94151 26.1257 2.98254 25.9688 2.98255C25.818 2.9825 25.6808 2.94608 25.6123 2.92688C25.5273 2.90306 25.4369 2.87266 25.3574 2.84485C25.1839 2.78416 25.0262 2.72492 24.8525 2.672C24.6805 2.61962 24.5408 2.58947 24.4355 2.58118C24.3975 2.57819 24.3729 2.57917 24.3594 2.5802ZM5.25879 27.3888C5.54617 27.0793 6.02473 27.0521 6.34473 27.3204L6.375 27.3478C6.67999 27.631 7.10424 27.9898 8.17578 28.6964L8.39941 28.8429C9.08367 29.2876 9.8905 29.5763 10.8975 29.8449C11.4007 29.979 11.9369 30.1037 12.5264 30.2433C13.0385 30.3646 13.5855 30.4962 14.1631 30.6495L14.4121 30.7159C15.8493 31.1079 16.7289 31.766 17.168 32.63C17.5905 33.4616 17.5156 34.3233 17.4326 34.9044L17.4238 34.962C17.3255 35.5553 17.0233 36.1234 16.7236 36.5646C16.4284 36.9991 16.0836 37.386 15.793 37.6398L15.7363 37.6886L15.7041 37.714C15.3702 37.9647 14.8944 37.9123 14.624 37.588C14.3538 37.2637 14.3878 36.7863 14.6943 36.5031L14.7256 36.4757L14.7939 36.4152C14.9651 36.2581 15.2032 35.9939 15.418 35.6779C15.6532 35.3316 15.8108 34.9966 15.8613 34.7335L15.8701 34.6818C15.945 34.1579 15.9487 33.7167 15.7598 33.3449C15.587 33.0052 15.1638 32.5576 13.9971 32.2394L13.7568 32.1749C13.2021 32.0277 12.6724 31.9003 12.1621 31.7794C11.5832 31.6423 11.0202 31.5116 10.4902 31.3702C9.43086 31.0877 8.43325 30.7473 7.53906 30.1661L7.30566 30.0138C6.18404 29.2741 5.6864 28.8621 5.30078 28.504L5.27148 28.4757C4.98042 28.1765 4.97162 27.6982 5.25879 27.3888ZM36.25 27.3204C36.57 27.0524 37.0477 27.0795 37.335 27.3888C37.6223 27.6983 37.6135 28.1764 37.3223 28.4757L37.2939 28.504C36.9083 28.8621 36.4098 29.2741 35.2881 30.0138L35.0557 30.1661C34.1614 30.7474 33.163 31.0877 32.1035 31.3702C31.5735 31.5116 31.0106 31.6423 30.4316 31.7794C29.9213 31.9003 29.3917 32.0277 28.8369 32.1749L28.5977 32.2394C27.4307 32.5577 27.0068 33.0052 26.834 33.3449C26.645 33.7167 26.6488 34.1579 26.7236 34.6818L26.7324 34.7335C26.783 34.9966 26.9405 35.3316 27.1758 35.6779C27.3905 35.9939 27.6286 36.2581 27.7998 36.4152L27.8682 36.4757L27.8994 36.5031C28.206 36.7863 28.24 37.2637 27.9697 37.588C27.6993 37.9122 27.2235 37.9646 26.8896 37.714L26.8584 37.6886L26.8008 37.6398C26.5102 37.386 26.1654 36.9991 25.8701 36.5646C25.5704 36.1235 25.2682 35.5552 25.1699 34.962L25.1611 34.9044C25.0781 34.3233 25.0041 33.4617 25.4268 32.63C25.8659 31.7661 26.7445 31.1079 28.1816 30.7159L28.4316 30.6495C29.0091 30.4963 29.5554 30.3645 30.0674 30.2433C30.6568 30.1037 31.1931 29.979 31.6963 29.8449C32.7034 29.5763 33.511 29.2877 34.1953 28.8429L34.418 28.6964C35.4899 27.9895 35.9147 27.631 36.2197 27.3478L36.25 27.3204ZM8.99414 33.0656C9.2005 32.6973 9.65813 32.5582 10.0322 32.7433L10.0684 32.7628L10.209 32.84C11.5704 33.5804 12.9289 34.0083 13.5264 34.1534L13.6387 34.1798L13.6787 34.1896C14.0816 34.2989 14.3319 34.7067 14.2422 35.1193C14.1522 35.5316 13.7555 35.7975 13.3438 35.7296L13.3037 35.7228L13.166 35.6906C12.4472 35.5169 10.9528 35.0422 9.45215 34.2257L9.29688 34.1398L9.26172 34.1193C8.90832 33.897 8.78784 33.434 8.99414 33.0656ZM32.3809 32.7433C32.7551 32.5579 33.2136 32.6971 33.4199 33.0656C33.6262 33.434 33.5049 33.8971 33.1514 34.1193L33.1162 34.1398L32.9609 34.2257C31.4601 35.0423 29.9658 35.517 29.2471 35.6906L29.1094 35.7228L29.0703 35.7296C28.6584 35.7975 28.2608 35.5317 28.1709 35.1193C28.0812 34.7066 28.3323 34.2988 28.7354 34.1896L28.7744 34.1798L28.8867 34.1534C29.4841 34.0083 30.8426 33.5805 32.2041 32.84L32.3447 32.7628L32.3809 32.7433ZM12.3789 12.6749C12.6495 12.3334 13.1456 12.2765 13.4873 12.547C13.8291 12.8176 13.8868 13.3136 13.6162 13.6554C13.4014 13.9268 13.0637 14.4313 12.791 15.0148C12.5121 15.6117 12.3426 16.2043 12.3652 16.6798L12.373 16.8048C12.476 18.081 13.2123 19.0406 14.334 19.5431C15.6358 20.0559 16.4763 21.2673 16.9551 22.4376C17.4243 23.585 17.6201 24.868 17.501 25.8204L17.4883 25.9122C17.1597 28.1014 15.281 28.682 14.6104 28.8497C14.1139 28.9738 13.5631 29.0251 12.8594 28.8429C12.1859 28.6685 11.4108 28.2906 10.4287 27.6359C9.14355 26.7791 8.3289 26.1279 7.72266 25.6075C7.08781 25.0626 6.77802 24.7518 6.37695 24.4601C5.9199 24.1277 5.47056 23.7568 5.10449 23.2687C4.75398 22.8013 4.50123 22.2555 4.35645 21.5782L4.3291 21.4415L4.32227 21.4005C4.26641 20.9869 4.54408 20.5975 4.95898 20.5197C5.37405 20.4419 5.77444 20.7045 5.87207 21.1105L5.87988 21.1495L5.89941 21.2462C5.99956 21.7162 6.1629 22.0489 6.36719 22.3214C6.5931 22.6226 6.89451 22.8837 7.30566 23.1827C7.77265 23.5224 8.219 23.9527 8.75098 24.4093C9.31172 24.8906 10.0757 25.5031 11.3047 26.3224C12.2166 26.9303 12.8234 27.2028 13.2549 27.3146C13.6558 27.4184 13.934 27.3916 14.2266 27.3185C14.819 27.1704 15.7545 26.8253 15.9268 25.6779L15.9346 25.6183C16.0112 24.9948 15.8838 23.9903 15.4932 23.0353C15.0872 22.043 14.4752 21.2887 13.7402 21.006L13.7217 20.9991L13.7031 20.9904C12.052 20.2564 10.9186 18.7744 10.7939 16.8468L10.7881 16.755C10.7476 15.9044 11.0391 15.0365 11.3613 14.3468C11.6898 13.6439 12.0939 13.035 12.3789 12.6749ZM29.043 12.547C29.3846 12.2765 29.8807 12.3334 30.1514 12.6749C30.4364 13.035 30.8405 13.6439 31.1689 14.3468C31.4912 15.0365 31.7827 15.9044 31.7422 16.755L31.7363 16.8468C31.6117 18.7745 30.4783 20.2564 28.8271 20.9904L28.8086 20.9991L28.79 21.006C28.055 21.2887 27.443 22.043 27.0371 23.0353C26.6464 23.9903 26.5191 24.9948 26.5957 25.6183L26.6035 25.6779C26.7758 26.8253 27.7113 27.1704 28.3037 27.3185C28.5963 27.3916 28.8745 27.4184 29.2754 27.3146C29.7069 27.2028 30.3136 26.9303 31.2256 26.3224C32.4548 25.5029 33.2195 24.8906 33.7803 24.4093C34.3121 23.9528 34.7577 23.5223 35.2246 23.1827C35.6358 22.8837 35.9372 22.6226 36.1631 22.3214C36.3674 22.0489 36.5307 21.7162 36.6309 21.2462L36.6504 21.1495L36.6582 21.1105C36.7558 20.7045 37.1562 20.4419 37.5713 20.5197C37.9862 20.5975 38.2639 20.9869 38.208 21.4005L38.2012 21.4415L38.1738 21.5782C38.029 22.2555 37.7763 22.8013 37.4258 23.2687C37.0597 23.7568 36.6104 24.1277 36.1533 24.4601C35.7523 24.7518 35.4425 25.0626 34.8076 25.6075C34.2014 26.1279 33.3867 26.7791 32.1016 27.6359C31.1195 28.2906 30.3443 28.6685 29.6709 28.8429C28.9672 29.0251 28.4163 28.9738 27.9199 28.8497C27.2492 28.682 25.3705 28.1013 25.042 25.9122L25.0293 25.8204C24.9101 24.868 25.1059 23.585 25.5752 22.4376C26.054 21.2673 26.8945 20.0559 28.1963 19.5431C29.318 19.0406 30.0543 18.081 30.1572 16.8048L30.165 16.6798C30.1877 16.2043 30.0182 15.6117 29.7393 15.0148C29.4666 14.4313 29.1289 13.9268 28.9141 13.6554C28.6435 13.3136 28.7012 12.8176 29.043 12.547ZM13.752 8.89856L13.8525 8.9054L13.8926 8.91028C14.3064 8.96597 14.6083 9.33709 14.5732 9.75794C14.5381 10.1787 14.179 10.4951 13.7617 10.4816L13.7217 10.4786L13.6572 10.4747C12.9855 10.4354 12.0217 10.6329 11.1025 11.3605C10.1621 12.105 9.21627 13.4469 8.7207 15.7843C8.53519 16.6593 8.53571 17.5583 8.75391 18.3956L8.79883 18.5597C9.72394 21.8632 12.0365 23.075 13.6504 23.4874L13.8066 23.5255L13.8457 23.5363C14.2473 23.6507 14.4934 24.0613 14.3984 24.4728C14.3034 24.8841 13.9022 25.1455 13.4912 25.0724L13.4521 25.0646L13.3555 25.0411C11.3576 24.5546 8.41733 23.0461 7.28027 18.9923L7.22656 18.7941C6.93933 17.692 6.94663 16.5428 7.17676 15.4572C7.73325 12.8324 8.84062 11.1374 10.123 10.1222C11.357 9.14554 12.706 8.83677 13.752 8.89856ZM28.7402 8.89856C29.7862 8.83673 31.136 9.1453 32.3701 10.1222C33.6525 11.1374 34.759 12.8325 35.3154 15.4572C35.5456 16.5428 35.5529 17.692 35.2656 18.7941L35.2119 18.9923C34.0748 23.0461 31.1346 24.5546 29.1367 25.0411L29.041 25.0646L29.001 25.0724C28.5899 25.1455 28.1888 24.8841 28.0938 24.4728C27.9988 24.0613 28.2449 23.6507 28.6465 23.5363L28.6855 23.5255L28.8418 23.4874C30.4557 23.075 32.7692 21.8632 33.6943 18.5597L33.7383 18.3956C33.9565 17.5583 33.957 16.6593 33.7715 15.7843C33.2759 13.4468 32.3301 12.105 31.3896 11.3605C30.4704 10.6328 29.5067 10.4353 28.835 10.4747L28.7705 10.4786L28.7305 10.4816C28.3132 10.4951 27.9541 10.1787 27.9189 9.75794C27.8839 9.33709 28.1857 8.96597 28.5996 8.91028L28.6396 8.9054L28.7402 8.89856ZM14.3213 4.97473C14.9376 4.80791 15.5426 4.75027 15.8916 4.79602L15.9238 4.79993C15.9307 4.80089 15.9351 4.80144 15.9385 4.80188C17.1655 4.87023 17.9864 6.0862 17.6045 7.24427L17.585 7.29895L17.0244 8.84094C16.9212 9.12483 16.8743 9.41825 16.8867 9.70911L16.9453 11.0724C16.969 11.6378 16.9957 12.3071 17.0225 13.0577L17.0264 13.171C17.0523 14.3216 16.8356 15.1762 16.4473 15.7892C16.0382 16.4348 15.4769 16.7496 14.9805 16.8575C14.5548 16.9498 14.1348 16.6796 14.042 16.254C13.9494 15.8281 14.2196 15.4072 14.6455 15.3146C14.7541 15.2909 14.9436 15.2121 15.1133 14.9445C15.2856 14.6723 15.4696 14.1526 15.4482 13.2072L15.4453 13.1144C15.4186 12.3673 15.3918 11.7018 15.3682 11.1388L15.3096 9.77747C15.2877 9.26915 15.3709 8.76976 15.541 8.30188L16.1016 6.75989L16.1113 6.72571C16.1478 6.56817 16.044 6.41104 15.8848 6.38294L15.8496 6.37903C15.8045 6.37666 15.7655 6.37166 15.7393 6.36829C15.7264 6.36664 15.7143 6.36553 15.7061 6.36438L15.6865 6.36145C15.6864 6.36148 15.6594 6.35834 15.5996 6.3595C15.5422 6.36061 15.4674 6.36542 15.3779 6.37512C15.1983 6.39464 14.9741 6.43301 14.7334 6.49817C14.2415 6.63136 13.739 6.8575 13.375 7.19348C13.0547 7.48914 12.5555 7.46976 12.2598 7.14954C11.9641 6.82925 11.9845 6.33 12.3047 6.0343C12.9209 5.46549 13.6869 5.14648 14.3213 4.97473ZM26.6006 4.79602C26.9496 4.75023 27.5544 4.80788 28.1709 4.97473C28.8054 5.14647 29.5712 5.46545 30.1875 6.0343C30.5078 6.32999 30.5281 6.82922 30.2324 7.14954C29.9367 7.46968 29.4374 7.48911 29.1172 7.19348C28.7532 6.85751 28.2507 6.63135 27.7588 6.49817C27.5183 6.43307 27.2948 6.39466 27.1152 6.37512C27.0256 6.36539 26.9501 6.36061 26.8926 6.3595C26.8329 6.35835 26.8057 6.36149 26.8057 6.36145L26.7861 6.36438C26.7779 6.36553 26.7657 6.36664 26.7529 6.36829C26.7267 6.37166 26.6877 6.37666 26.6426 6.37903L26.6074 6.38294C26.4483 6.41111 26.3444 6.56824 26.3809 6.72571L26.3906 6.75989L26.9512 8.30188C27.1213 8.76977 27.2044 9.26913 27.1826 9.77747L27.124 11.1388C27.1004 11.7018 27.0736 12.3673 27.0469 13.1144L27.0449 13.2072C27.0236 14.1526 27.2065 14.6723 27.3789 14.9445C27.5485 15.2121 27.738 15.2909 27.8467 15.3146C28.2726 15.4072 28.5428 15.8281 28.4502 16.254C28.3574 16.6796 27.9374 16.9499 27.5117 16.8575C27.0154 16.7496 26.4549 16.4346 26.0459 15.7892C25.6576 15.1762 25.4399 14.3216 25.4658 13.171L25.4697 13.0577C25.4965 12.3071 25.5232 11.6378 25.5469 11.0724L25.6055 9.70911C25.6179 9.41825 25.571 9.12483 25.4678 8.84094L24.9072 7.29895L24.8877 7.24427C24.5059 6.08656 25.3264 4.87091 26.5527 4.80188C26.5564 4.80141 26.5615 4.80102 26.5693 4.79993L26.6006 4.79602Z" fill="#10D48E"/>
</svg>
