<svg width="24" height="24" viewBox="0 0 24 24" fill="none" xmlns="http://www.w3.org/2000/svg">
<g clip-path="url(#clip0_4019_1591)">
<path d="M10.4863 0.303469C11.0267 -0.101807 11.7702 -0.101808 12.3105 0.303469L22.1885 7.71265C22.5712 7.99966 22.7969 8.45013 22.7969 8.92847V22.4802C22.7967 23.3194 22.1165 23.9996 21.2773 23.9998H1.51953C0.680382 23.9996 0.000140158 23.3194 0 22.4802V8.92847C1.49666e-05 8.45012 0.225722 7.99966 0.608398 7.71265L10.4863 0.303469ZM2.5332 9.43531V21.4666H6.33203V14.1209C6.33203 13.2815 7.01318 12.6003 7.85254 12.6003H14.9443C15.7837 12.6003 16.4648 13.2815 16.4648 14.1209V21.4666H20.2637V9.43531L11.3984 2.78589L2.5332 9.43531ZM8.86523 21.4666H13.9316V15.1335H8.86523V21.4666Z" fill="#898D9E"/>
</g>
<defs>
<clipPath id="clip0_4019_1591">
<rect width="24" height="24" fill="white"/>
</clipPath>
</defs>
</svg>
