<svg width="24" height="24" viewBox="0 0 24 24" fill="none" xmlns="http://www.w3.org/2000/svg">
<path d="M21.7354 0C22.5306 8.44992e-05 23.1748 0.645196 23.1748 1.44043V22.5596C23.1748 23.3548 22.5306 23.9999 21.7354 24H5.1748C3.18689 23.9998 1.57541 22.3883 1.5752 20.4004V3.59961C1.57541 1.61169 3.18689 0.000211156 5.1748 0H21.7354ZM5.1748 19.2002C4.55365 19.2004 4.04287 19.6723 3.98145 20.2773L3.97559 20.4004L3.98145 20.5225C4.04278 21.1275 4.55358 21.5994 5.1748 21.5996H20.7754V19.2002H5.1748ZM5.1748 2.40039C4.51237 2.4006 3.9758 2.93718 3.97559 3.59961V17.0049C4.35071 16.8723 4.75431 16.7998 5.1748 16.7998H20.7754V2.40039H5.1748ZM13.5752 12H7.5752V9.59961H13.5752V12ZM17.1748 8.40039H7.5752V6H17.1748V8.40039Z" fill="#898D9E"/>
</svg>
