<svg width="24" height="24" viewBox="0 0 24 24" fill="none" xmlns="http://www.w3.org/2000/svg">
<g clip-path="url(#clip0_4019_1608)">
<path d="M11.625 0C18.2524 0 23.625 5.37258 23.625 12C23.625 18.6274 18.2524 24 11.625 24C4.99758 24 -0.375 18.6274 -0.375 12C-0.375 5.37258 4.99758 2.57711e-07 11.625 0ZM11.625 2.40039C6.32307 2.40039 2.02539 6.69807 2.02539 12C2.02539 17.3019 6.32307 21.5996 11.625 21.5996C16.9269 21.5996 21.2246 17.3019 21.2246 12C21.2246 6.69807 16.9269 2.40039 11.625 2.40039ZM9.22461 8.09668C9.22472 7.71339 9.65273 7.48463 9.97168 7.69727L15.8262 11.6006C16.1109 11.7906 16.111 12.2094 15.8262 12.3994L9.97168 16.3027C9.65277 16.5153 9.22481 16.2865 9.22461 15.9033V8.09668Z" fill="#898D9E"/>
</g>
<defs>
<clipPath id="clip0_4019_1608">
<rect width="24" height="24" fill="white"/>
</clipPath>
</defs>
</svg>
