<svg width="24" height="24" viewBox="0 0 24 24" fill="none" xmlns="http://www.w3.org/2000/svg">
<path d="M12 15C16.0016 15.0002 19.3148 17.9387 19.9043 21.7754C19.9225 21.8941 19.8291 21.9999 19.709 22H18.084C17.9863 22 17.9037 21.9288 17.8848 21.833C17.3417 19.0781 14.9142 17.0002 12 17C9.08574 17 6.65841 19.0781 6.11524 21.833C6.09635 21.9288 6.01273 22 5.91505 22H4.29103C4.17076 22 4.07747 21.8943 4.09571 21.7754C4.6852 17.9386 7.99827 15 12 15ZM12 2C15.3137 2 18 4.68629 18 8C18 11.3137 15.3137 14 12 14C8.68643 13.9998 6.00001 11.3136 6.00001 8C6.00001 4.68639 8.68643 2.00016 12 2ZM12 4C9.791 4.00016 8.00001 5.79096 8.00001 8C8.00001 10.209 9.791 11.9998 12 12C14.2091 12 16 10.2091 16 8C16 5.79086 14.2091 4 12 4Z" fill="black"/>
</svg>
