<svg width="24" height="24" viewBox="0 0 24 24" fill="none" xmlns="http://www.w3.org/2000/svg">
<path d="M12.3685 15.6123C16.9474 15.8443 20.6787 19.285 21.3616 23.7305C21.3836 23.8731 21.2715 23.9999 21.1273 24H19.1761C19.0591 23.9999 18.9597 23.9155 18.9368 23.8008C18.2853 20.4945 15.3717 18 11.8743 18C8.37734 18.0005 5.46515 20.4948 4.81379 23.8008C4.791 23.9156 4.69067 24 4.57356 24H2.62434C2.48025 23.9997 2.36905 23.873 2.39094 23.7305C3.09826 19.1266 7.07268 15.6001 11.8743 15.5996L12.3685 15.6123ZM12.2454 0.00976562C16.0498 0.202515 19.0755 3.34795 19.0755 7.2002L19.0657 7.57031C18.873 11.3746 15.7275 14.4003 11.8753 14.4004L11.5042 14.3906C7.82289 14.2037 4.87141 11.2517 4.68489 7.57031L4.67512 7.2002C4.67512 3.22381 7.89895 0.000103088 11.8753 0L12.2454 0.00976562ZM11.8753 2.40039C9.22444 2.40049 7.07551 4.54929 7.07551 7.2002C7.07562 9.85101 9.2245 11.9999 11.8753 12C14.5261 11.9999 16.675 9.85101 16.6751 7.2002C16.6751 4.54929 14.5262 2.4005 11.8753 2.40039Z" fill="#898D9E"/>
</svg>
